<svg width="64" height="64" viewBox="0 0 64 64" fill="none" xmlns="http://www.w3.org/2000/svg">
<path d="M63 16V12H59.8C59.544 10.7462 59.0483 9.55372 58.34 8.488L60.607 6.222L57.778 3.393L55.512 5.66C54.4462 4.95188 53.2537 4.45615 52 4.2V1H48V4.2C46.7463 4.45615 45.5538 4.95188 44.488 5.66L42.222 3.393L39.393 6.222L41.66 8.488C40.9517 9.55372 40.456 10.7462 40.2 12H37V16H40.2C40.4558 17.2536 40.9512 18.4461 41.659 19.512L39.392 21.778L42.221 24.607L44.487 22.34C45.553 23.0484 46.7459 23.5442 48 23.8V27H52V23.8C53.2537 23.5444 54.4462 23.0489 55.512 22.341L57.778 24.608L60.607 21.779L58.34 19.512C59.0481 18.4462 59.5439 17.2537 59.8 16H63Z" stroke="white" stroke-width="2" stroke-linejoin="round"/>
<path d="M55.5 14C55.5 17.0376 53.0376 19.5 50 19.5C46.9624 19.5 44.5 17.0376 44.5 14C44.5 10.9624 46.9624 8.5 50 8.5C53.0376 8.5 55.5 10.9624 55.5 14Z" stroke="white"/>
<path d="M38 28V24H35.706C35.57 23.5389 35.3863 23.0931 35.158 22.67L36.778 21.05L33.95 18.222L32.33 19.842C31.9069 19.6137 31.4611 19.43 31 19.294V17H27V19.294C26.5389 19.43 26.0931 19.6137 25.67 19.842L24.05 18.222L21.222 21.05L22.842 22.67C22.6137 23.0931 22.43 23.5389 22.294 24H20V28H22.294C22.43 28.4611 22.6137 28.9069 22.842 29.33L21.222 30.95L24.05 33.778L25.67 32.158C26.0931 32.3863 26.5389 32.57 27 32.706V35H31V32.706C31.4611 32.57 31.9069 32.3863 32.33 32.158L33.95 33.778L36.778 30.95L35.158 29.33C35.3863 28.9069 35.57 28.4611 35.706 28H38Z" stroke="white" stroke-width="2" stroke-linejoin="round"/>
<path d="M32.5 26C32.5 27.933 30.933 29.5 29 29.5C27.067 29.5 25.5 27.933 25.5 26C25.5 24.067 27.067 22.5 29 22.5C30.933 22.5 32.5 24.067 32.5 26Z" stroke="white"/>
<path d="M56.8008 30C56.8768 29.3367 56.9311 28.67 56.9638 28" stroke="white" stroke-width="2" stroke-linejoin="round"/>
<path d="M39 2.12101C36.5699 1.37538 34.0419 0.997527 31.5 1.00001V1.00001C24.737 1.00001 18.251 3.68661 13.4688 8.46879C8.6866 13.251 6 19.737 6 26.5V27L1.256 36.488C1.08777 36.825 1.00014 37.1964 1 37.573V37.573C1.00027 38.2166 1.25605 38.8338 1.71114 39.2889C2.16624 39.744 2.7834 39.9997 3.427 40H6V42C6 44.6522 7.05357 47.1957 8.92893 49.0711C10.8043 50.9464 13.3478 52 16 52H17C17.5304 52 18.0391 52.2107 18.4142 52.5858C18.7893 52.9609 19 53.4696 19 54V63H44V53.751C44 53.1988 44.1144 52.6526 44.3359 52.1468C44.5574 51.641 44.8812 51.1865 45.287 50.812L47.08 49.157C52.002 44.6135 55.3108 38.591 56.506 32" stroke="white" stroke-width="2" stroke-linejoin="round"/>
<path d="M48 30V36" stroke="white" stroke-width="2" stroke-linejoin="round"/>
<path d="M48 38V40" stroke="white" stroke-width="2" stroke-linejoin="round"/>
<path d="M52 30V34" stroke="white" stroke-width="2" stroke-linejoin="round"/>
<path d="M52 36V38" stroke="white" stroke-width="2" stroke-linejoin="round"/>
<path d="M44 27V31" stroke="white" stroke-width="2" stroke-linejoin="round"/>
<path d="M44 33V35" stroke="white" stroke-width="2" stroke-linejoin="round"/>
</svg>
