<svg width="257" height="243" viewBox="0 0 257 243" fill="none" xmlns="http://www.w3.org/2000/svg">
<path d="M35 78V90C35 90.5523 35.4477 91 36 91H40C40.5523 91 41 91.4477 41 92V183C41 183.552 40.5523 184 40 184H33.5C32.9477 184 32.5 184.448 32.5 185V201.5C32.5 202.052 32.0523 202.5 31.5 202.5H21C20.4477 202.5 20 202.948 20 203.5V217.5C20 218.052 20.4477 218.5 21 218.5H185.5H214.5C215.052 218.5 215.5 218.052 215.5 217.5V202C215.5 201.448 215.052 201 214.5 201H205.5C204.948 201 204.5 200.552 204.5 200V185C204.5 184.448 204.052 184 203.5 184H197.5C196.948 184 196.5 183.552 196.5 183V92C196.5 91.4477 196.948 91 197.5 91H201.5C202.052 91 202.5 90.5523 202.5 90V78M35 78H22.5C21.9477 78 21.5 77.5523 21.5 77V61.1648C21.5 60.762 21.7416 60.3986 22.113 60.2427L117.615 20.1616C117.861 20.0582 118.139 20.0577 118.386 20.1602L214.884 60.244C215.257 60.399 215.5 60.7634 215.5 61.1675V77C215.5 77.5523 215.052 78 214.5 78H202.5M35 78H68M202.5 78H169.5M68 78V89M68 78H101.5M68 89H75.5C76.0523 89 76.5 89.4477 76.5 90V133.5M68 89H62C61.4477 89 61 89.4477 61 90V132.5C61 133.052 61.4477 133.5 62 133.5H76.5M76.5 133.5H95.5M95.5 133.5V92C95.5 91.4477 95.9477 91 96.5 91H101.5M95.5 133.5H162.5M101.5 91V78M101.5 91H108C108.552 91 109 91.4477 109 92V132.5C109 133.052 109.448 133.5 110 133.5H128C128.552 133.5 129 133.052 129 132.5V92C129 91.4477 129.448 91 130 91H135.5M101.5 78H135.5M162.5 133.5H143.5C142.948 133.5 142.5 133.052 142.5 132.5V92C142.5 91.4477 142.052 91 141.5 91H135.5M162.5 133.5V92C162.5 91.4477 162.948 91 163.5 91H169.5M176.5 133.5V92C176.5 91.4477 176.052 91 175.5 91H169.5M169.5 91V78M169.5 78H135.5M135.5 78V91" stroke="black" stroke-width="7"/>
<path d="M61.5 133.5C57.9553 146.343 56.2603 160.287 55 225.5M162 133.5H176.5C179.566 153.455 181.018 168.51 181.652 184M182 225.5C182.14 209.47 182.166 196.592 181.652 184M196.5 184H181.652" stroke="black" stroke-width="7"/>
<circle cx="70.5" cy="60.5" r="3.5" fill="black"/>
<circle cx="45.5" cy="201.5" r="3.5" fill="black"/>
<circle cx="193.5" cy="201.5" r="3.5" fill="black"/>
<circle cx="84.5" cy="60.5" r="3.5" fill="black"/>
<circle cx="98.5" cy="60.5" r="3.5" fill="black"/>
<circle cx="112.5" cy="60.5" r="3.5" fill="black"/>
<circle cx="126.5" cy="60.5" r="3.5" fill="black"/>
<circle cx="140.5" cy="60.5" r="3.5" fill="black"/>
<circle cx="154.5" cy="60.5" r="3.5" fill="black"/>
<circle cx="168.5" cy="60.5" r="3.5" fill="black"/>
<path d="M186.009 141.5C186.009 147.299 179.828 174.5 179.808 163.5C179.788 152.5 179.808 154.299 179.808 148.5C179.808 142.701 171.21 131 177.009 131C182.808 131 186.009 135.701 186.009 141.5Z" fill="black"/>
<path d="M51 141.5C51 147.299 57.1813 174.5 57.2012 163.5C57.221 152.5 57.2012 154.299 57.2012 148.5C57.2012 142.701 65.799 131 60 131C54.201 131 51 135.701 51 141.5Z" fill="black"/>
<line x1="60" y1="137.5" x2="176" y2="137.5" stroke="black" stroke-width="3"/>
<line x1="99.6569" y1="181.64" x2="114" y2="195.983" stroke="black" stroke-width="8" stroke-linecap="round"/>
<line x1="141.6" y1="168.657" x2="114.137" y2="196.12" stroke="black" stroke-width="8" stroke-linecap="round"/>
</svg>
