<svg width="32" height="32" viewBox="0 0 32 32" fill="none" xmlns="http://www.w3.org/2000/svg">
<path d="M20.6985 25.1669L20.5811 24.8324H20.2267H19.1667V23.1658H20.2267H20.5813L20.6985 22.8311C21.1766 21.4669 22.4706 20.4991 24 20.4991C24.9283 20.4991 25.8185 20.8679 26.4749 21.5242C27.1313 22.1806 27.5 23.0709 27.5 23.9991C27.5 24.9274 27.1313 25.8176 26.4749 26.474C25.8185 27.1304 24.9283 27.4991 24 27.4991L23.9986 27.4991C23.2744 27.5012 22.5676 27.2778 21.9762 26.8598C21.3848 26.4419 20.9382 25.8502 20.6985 25.1669ZM11.3019 22.8322L11.4196 23.1658H11.7733H12.8334V24.8324H11.7733H11.4189L11.3016 25.1669C11.0618 25.8502 10.6152 26.4419 10.0238 26.8598C9.43245 27.2778 8.72561 27.5012 8.00146 27.4991H8.00002C7.07176 27.4991 6.18152 27.1304 5.52514 26.474C4.86877 25.8176 4.50002 24.9274 4.50002 23.9991C4.50002 22.4697 5.46783 21.1757 6.83204 20.6976L7.16668 20.5804V20.2258V19.1658H8.83335V20.2258V20.5795L9.16694 20.6973C10.1577 21.0469 10.9522 21.8415 11.3019 22.8322ZM9.16799 11.3006L8.83335 11.4179V11.7724V12.8324H7.16668V11.7724V11.418L6.83223 11.3006C6.14892 11.0609 5.55722 10.6143 5.13929 10.0229C4.72135 9.43155 4.49792 8.72471 4.50002 8.00056V7.99911C4.50002 7.07086 4.86877 6.18062 5.52514 5.52424C6.18152 4.86786 7.07176 4.49911 8.00002 4.49911C8.92827 4.49911 9.81851 4.86786 10.4749 5.52424C11.1313 6.18062 11.5 7.07086 11.5 7.99911C11.5 9.52848 10.5322 10.8225 9.16799 11.3006ZM24 22.1658C23.5138 22.1658 23.0475 22.3589 22.7037 22.7028C22.3598 23.0466 22.1667 23.5129 22.1667 23.9991C22.1667 24.4853 22.3598 24.9517 22.7037 25.2955C23.0475 25.6393 23.5138 25.8324 24 25.8324C24.4862 25.8324 24.9526 25.6393 25.2964 25.2955C25.6402 24.9517 25.8334 24.4853 25.8334 23.9991C25.8334 23.5129 25.6402 23.0466 25.2964 22.7028C24.9526 22.3589 24.4862 22.1658 24 22.1658ZM24 11.1658C24.6383 11.1658 25.2505 10.9122 25.7018 10.4609C26.1531 10.0095 26.4067 9.3974 26.4067 8.75911C26.4067 8.12083 26.1531 7.50868 25.7018 7.05734C25.2505 6.60601 24.6383 6.35245 24 6.35245C23.3617 6.35245 22.7496 6.60601 22.2982 7.05734C21.8469 7.50868 21.5933 8.12083 21.5933 8.75911C21.5933 9.3974 21.8469 10.0095 22.2982 10.4609C22.7496 10.9122 23.3617 11.1658 24 11.1658ZM24 3.92578C25.2819 3.92578 26.5113 4.43501 27.4177 5.34143C28.3241 6.24786 28.8334 7.47723 28.8334 8.75911C28.8334 9.65442 28.531 10.6972 28.0437 11.7844C27.5595 12.865 26.9093 13.9528 26.2521 14.928C25.5957 15.9018 24.9384 16.7544 24.4448 17.3638C24.2745 17.574 24.124 17.755 24 17.9017C23.876 17.755 23.7255 17.574 23.5552 17.3638C23.0616 16.7544 22.4043 15.9018 21.748 14.928C21.0907 13.9528 20.4406 12.865 19.9563 11.7844C19.469 10.6972 19.1667 9.65442 19.1667 8.75911C19.1667 7.47723 19.6759 6.24786 20.5823 5.34143C21.4888 4.43501 22.7181 3.92578 24 3.92578ZM8.00002 22.1658C7.51379 22.1658 7.04747 22.3589 6.70365 22.7028C6.35984 23.0466 6.16668 23.5129 6.16668 23.9991C6.16668 24.4853 6.35984 24.9517 6.70365 25.2955C7.04747 25.6393 7.51379 25.8324 8.00002 25.8324C8.48625 25.8324 8.95256 25.6393 9.29638 25.2955C9.6402 24.9517 9.83335 24.4853 9.83335 23.9991C9.83335 23.5129 9.6402 23.0466 9.29638 22.7028C8.95256 22.3589 8.48625 22.1658 8.00002 22.1658ZM8.00002 6.16578C7.51379 6.16578 7.04747 6.35894 6.70365 6.70275C6.35984 7.04657 6.16668 7.51288 6.16668 7.99911C6.16668 8.48534 6.35984 8.95166 6.70365 9.29548C7.04747 9.63929 7.51379 9.83245 8.00002 9.83245C8.48625 9.83245 8.95256 9.63929 9.29638 9.29548C9.6402 8.95166 9.83335 8.48534 9.83335 7.99911C9.83335 7.51288 9.6402 7.04657 9.29638 6.70275C8.95256 6.35894 8.48625 6.16578 8.00002 6.16578ZM15.1667 24.8324V23.1658H16.8334V24.8324H15.1667ZM8.83335 16.8324H7.16668V15.1658H8.83335V16.8324Z" stroke="#E5B349"/>
</svg>
