<svg width="400" height="407" viewBox="0 0 400 407" fill="none" xmlns="http://www.w3.org/2000/svg">
<path d="M150.293 191.453C150.613 191.453 150.94 191.446 151.266 191.43C157.043 191.19 162.325 188.857 165.758 185.029C168.178 182.331 167.955 178.179 165.258 175.76C162.563 173.346 158.419 173.561 155.999 176.26C154.942 177.436 152.919 178.221 150.715 178.315C148.109 178.446 145.561 177.533 143.787 175.869C141.161 173.385 137.005 173.506 134.521 176.141C132.036 178.779 132.158 182.933 134.796 185.421C138.888 189.283 144.485 191.453 150.293 191.453Z" fill="black"/>
<path d="M177.56 143.582C179.334 141.915 181.902 141.021 184.495 141.136C186.698 141.229 188.715 142.014 189.772 143.187C191.066 144.633 192.858 145.37 194.651 145.37C196.214 145.37 197.776 144.815 199.031 143.693C201.727 141.271 201.951 137.122 199.531 134.424C196.105 130.593 190.822 128.26 185.039 128.016C178.956 127.827 172.892 129.952 168.569 134.029C165.931 136.517 165.809 140.671 168.294 143.309C170.772 145.947 174.935 146.066 177.56 143.582Z" fill="black"/>
<path d="M119.395 143.191C120.689 144.636 122.482 145.37 124.274 145.37C125.837 145.37 127.406 144.815 128.655 143.69C131.35 141.267 131.575 137.116 129.154 134.421C125.716 130.587 120.42 128.253 114.625 128.016C108.413 127.792 102.483 129.962 98.1802 134.039C95.5481 136.53 95.4393 140.684 97.9239 143.319C100.427 145.957 104.577 146.063 107.197 143.572C108.945 141.915 111.334 141.001 114.094 141.136C116.309 141.226 118.339 142.014 119.395 143.191Z" fill="black"/>
<path d="M283.945 168.012H283.695C280.071 168.012 277.266 170.952 277.266 174.577C277.266 178.202 280.32 181.141 283.945 181.141C287.57 181.141 290.502 178.202 290.502 174.577C290.502 170.952 287.569 168.012 283.945 168.012Z" fill="black"/>
<path d="M318.366 168.012H318.109C314.485 168.012 311.68 170.952 311.68 174.577C311.68 178.202 314.741 181.141 318.365 181.141C321.989 181.141 324.922 178.202 324.922 174.577C324.922 170.952 321.99 168.012 318.366 168.012Z" fill="black"/>
<path d="M352.8 168.012H352.551C348.926 168.012 346.115 170.952 346.115 174.577C346.115 178.202 349.176 181.141 352.8 181.141C356.425 181.141 359.358 178.202 359.358 174.577C359.358 170.952 356.425 168.012 352.8 168.012Z" fill="black"/>
<path d="M375.751 124.79C348.866 93.1497 301.26 89.3423 269.653 116.257C269.325 116.519 268.997 116.782 268.735 117.11C261.194 86.3883 248.407 54.9446 226.834 32.2972C206.441 10.8314 180.54 0 149.917 0C100.934 0 63.5569 28.4898 41.9833 82.4497C19.0982 139.56 19.6228 214.001 29.7211 223.651C35.8745 229.224 46.3537 234.517 56.8999 238.719C0.0249204 264.706 0 310.947 0 343.304V400.432C0 404.057 2.93309 406.997 6.55732 406.997H149.55C149.556 406.997 149.563 407 149.57 407C149.577 407 293.159 406.997 293.159 406.997C296.783 406.997 299.716 404.057 299.716 400.432V343.304C299.716 311.777 299.681 267.075 247.058 240.762C255.153 237.206 262.898 233.208 268.539 230.084C280.67 240.916 295.948 247.415 312.473 248.793C314.506 248.924 316.538 248.99 318.571 248.99C336.407 248.99 353.522 242.754 367.292 231.003C382.571 218.006 391.882 199.757 393.521 179.669C395.095 159.582 388.8 140.151 375.751 124.79ZM56.9287 393.868V361.802C56.9287 358.177 53.9956 355.237 50.3714 355.237C46.7472 355.237 43.8141 358.177 43.8141 361.802V393.868H13.1146V343.304C13.1146 307.223 13.1369 262.851 84.3613 242.672L65.8742 276.179C64.4526 278.749 64.9136 281.955 67.0014 284.019L87.8898 304.693L73.0847 342.551C72.0283 345.259 72.8735 348.339 75.1725 350.125L131.403 393.868H56.9287ZM87.0832 342.769L101.677 305.452C102.631 303.013 102.042 300.238 100.179 298.394L79.7515 278.175L95.6779 249.307L137.295 381.828L87.0832 342.769ZM110.048 218.526C121.978 227.333 135.46 232.778 149.429 232.778C162.031 232.778 175.078 227.02 187.059 217.891L195.269 233.364L185.193 265.383H114.475L104.297 232.974L110.048 218.526ZM78.4256 134.056V108.509C97.5599 103.858 102.433 97.7232 110.092 86.3155C112.032 83.4146 114.171 80.2315 116.969 76.5843C154.898 98.3002 183.439 107.317 221.406 109.506V134.193C221.406 167.163 182.107 219.65 149.429 219.65C136.085 219.65 123.049 213.187 111.844 203.217C111.833 203.206 111.819 203.198 111.808 203.187C92.3199 185.83 78.4256 157.779 78.4256 134.056ZM118.598 278.512H181.062L149.797 377.859L118.598 278.512ZM203.947 249.49L219.696 278.675L199.236 298.92C197.373 300.767 196.784 303.542 197.745 305.985L212.351 343.301L162.137 382.349L203.947 249.49ZM286.602 343.304V393.868H253.136V361.802C253.136 358.177 250.203 355.237 246.579 355.237C242.955 355.237 240.022 358.177 240.022 361.802V393.868H168.699L224.268 350.657C226.567 348.872 227.413 345.788 226.35 343.08L211.526 305.219L232.414 284.554C234.482 282.503 234.956 279.33 233.573 276.766L215.146 242.622C219.53 243.859 223.626 245.193 227.488 246.606C227.522 246.618 227.554 246.631 227.589 246.641C286.558 268.25 286.602 309.428 286.602 343.304ZM229.636 233.455C222.717 231.03 215.089 228.869 206.735 226.993L197.196 209.016C218.57 188.277 234.521 157.915 234.521 134.193V103.243C234.521 99.7135 231.729 96.8127 228.207 96.6814C187.793 95.1749 159.137 86.2065 118.705 62.4136C115.945 60.7882 112.404 61.3974 110.355 63.8624C105.289 69.9174 101.915 74.9498 99.1992 78.9948C92.2386 89.3706 89.895 92.8675 70.5621 96.8101C67.5077 97.435 65.311 100.124 65.311 103.243V134.056C65.311 159.711 79.1331 189.351 99.5566 209.425L92.5239 227.094C86.6577 228.422 81.1594 229.894 76.0138 231.501C60.4225 226.764 45.161 219.707 39.0325 214.395C33.9178 204.024 31.6883 122.493 64.8028 65.2508C84.8026 30.656 113.458 13.1289 149.917 13.1289C176.802 13.1289 199.49 22.5818 217.326 41.2905C238.965 64.0035 251.096 97.2853 257.85 128.992C246.703 144.024 241.588 162.733 243.621 181.704L226.638 204.746C225.129 206.715 224.933 209.341 225.982 211.507C227.031 213.739 229.26 215.117 231.687 215.183L256.08 215.84C257.064 217.349 258.178 218.794 259.293 220.172C250.858 224.671 239.47 230.132 229.636 233.455ZM380.407 178.619C379.751 186.956 377.522 194.833 373.849 201.989C370.177 209.209 365.128 215.643 358.768 221.025C346.112 231.791 330.112 237.043 313.522 235.664C300.604 234.614 288.67 229.756 278.965 221.682C273.65 217.351 268.736 211.905 265.326 205.927C264.145 204.024 262.113 202.908 259.883 202.842L244.67 202.382L255.686 187.415C256.736 186.037 257.195 184.264 256.932 182.558C255.228 170.873 256.867 159.254 261.457 148.816C264.014 142.843 267.621 137.263 272.08 132.274C273.916 130.173 276.014 128.138 278.179 126.3C304.277 104.047 343.555 107.198 365.785 133.324C376.538 145.994 381.718 162.077 380.407 178.619Z" fill="black"/>
</svg>
