<svg width="425" height="425" viewBox="0 0 425 425" fill="none" xmlns="http://www.w3.org/2000/svg">
<path d="M195.137 368.948C192.188 370.716 191.23 374.539 192.998 377.489C196.545 383.406 198.42 390.192 198.42 397.113V409.581H122.32L120.179 392.143C120.275 392.021 120.375 391.902 120.468 391.777L128.32 397.773C129.416 398.609 130.746 399.05 132.099 399.05C132.589 399.05 133.083 398.992 133.57 398.874C135.397 398.43 136.924 397.184 137.727 395.485L155.553 357.759L165.953 359.34C170.531 360.036 174.887 361.53 178.901 363.781C179.865 364.321 180.91 364.579 181.942 364.579C184.12 364.579 186.235 363.433 187.376 361.398C189.059 358.399 187.992 354.604 184.993 352.923C179.666 349.933 173.89 347.951 167.822 347.03L155.83 345.208L149.568 337.145L150.023 329.509C155.253 324.023 158.308 316.665 158.308 308.875V276.492L168.937 260.853C169.282 260.346 169.549 259.789 169.732 259.203C170.607 256.394 171.05 253.476 171.05 250.532V236.885C171.05 211.335 151.083 189.954 125.592 188.21L90.1324 185.784C85.4831 185.465 80.882 187.112 77.4911 190.298C75.5877 192.086 74.1451 194.286 73.2502 196.696C53.1416 199.245 37.5444 216.459 37.5444 237.249V248.733C37.5444 251.211 38.0035 253.638 38.9083 255.945C39.0867 256.401 39.3191 256.834 39.5989 257.235L53.0179 276.458V308.792C53.0179 317.36 56.6993 325.391 62.91 330.992L63.5068 336.125C63.4819 336.156 63.4528 336.184 63.4288 336.216L56.7939 344.759L42.876 346.922C18.0326 350.786 0 371.838 0 396.98V415.808C0 419.246 2.7874 422.033 6.22559 422.033H95.879H116.814H204.647C208.085 422.033 210.872 419.246 210.872 415.808V397.113C210.872 387.939 208.384 378.94 203.679 371.088C201.911 368.139 198.087 367.181 195.137 368.948ZM84.4513 246.232C88.5129 248.49 93.1829 249.78 98.1501 249.78H135.284C141.114 249.78 145.857 254.523 145.857 260.353V274.542C145.857 274.551 145.857 274.559 145.857 274.568V274.577V308.875C145.857 315.179 142.441 321.011 136.944 324.095L118.049 334.695C114.836 336.497 111.191 337.45 107.508 337.45H104.197C100.552 337.45 96.9415 336.516 93.7532 334.749L74.4605 324.057C73.9135 323.754 73.393 323.416 72.8883 323.061C72.6393 322.844 72.3762 322.645 72.0956 322.469C67.956 319.192 65.4691 314.174 65.4691 308.793V274.501V259.806C73.7973 258.705 80.8363 253.468 84.4513 246.232ZM106.139 366.129L77.531 339.994L87.7177 345.639C92.748 348.428 98.4464 349.901 104.197 349.901H107.508C113.32 349.901 119.071 348.398 124.141 345.554L135.85 338.986L106.139 366.129ZM69.1256 349.18L95.5104 373.284L82.5181 383.205L67.4563 351.33L69.1256 349.18ZM102.005 383.991L106.139 380.834L110.539 384.194C109.596 385.51 108.055 386.371 106.346 386.371C104.526 386.372 102.922 385.425 102.005 383.991ZM129.759 383.205L116.766 373.284L143.151 349.181L144.82 351.33L129.759 383.205ZM49.9964 248.734V237.25C49.9964 221.575 62.7489 208.823 78.4241 208.823C80.0818 208.823 81.6706 208.162 82.8393 206.987C84.0081 205.811 84.6588 204.218 84.6497 202.561C84.6422 201.34 85.1287 200.209 86.0177 199.373C86.9067 198.537 88.0705 198.126 89.2849 198.207L124.744 200.633C143.73 201.932 158.601 217.856 158.601 236.886V250.533C158.601 251.935 158.426 253.327 158.079 254.683L157.723 255.207C155.378 244.983 146.212 237.33 135.287 237.33H98.1526C89.4168 237.33 82.3105 230.223 82.3105 221.488V218.98C82.3105 215.542 79.5231 212.755 76.085 212.755C72.6468 212.755 69.8594 215.542 69.8594 218.98V221.488C69.8594 227.187 71.5585 232.492 74.468 236.937C73.6005 242.939 68.4375 247.57 62.1994 247.57H59.2468C55.8086 247.57 53.0212 250.357 53.0212 253.795V254.707L50.2994 250.808C50.0977 250.136 49.9964 249.44 49.9964 248.734ZM12.4512 396.98C12.4512 378.017 26.0512 362.139 44.7894 359.226L56.5532 357.398L74.5501 395.485C75.3537 397.184 76.881 398.43 78.708 398.874C79.1944 398.993 79.6883 399.05 80.1789 399.05C81.5311 399.05 82.8617 398.609 83.9574 397.773L92.0955 391.559C92.2291 391.743 92.3794 391.913 92.5205 392.091L90.3723 409.581H12.4512V396.98ZM102.916 409.582L104.254 398.686C104.942 398.768 105.637 398.823 106.346 398.823C107.056 398.823 107.752 398.769 108.439 398.689L109.777 409.582H102.916V409.582Z" fill="black"/>
<path d="M412.758 364.092C404.864 354.908 393.923 348.849 381.95 347.03L369.958 345.208L363.696 337.145L364.15 329.509C369.38 324.023 372.435 316.665 372.435 308.875V276.492L383.064 260.854C383.41 260.346 383.678 259.79 383.86 259.204C384.735 256.394 385.178 253.477 385.178 250.533V236.886C385.178 211.336 365.21 189.955 339.719 188.211L304.26 185.785C299.609 185.466 295.01 187.113 291.619 190.299C289.716 192.087 288.273 194.287 287.378 196.697C267.269 199.246 251.672 216.46 251.672 237.25V248.734C251.672 251.211 252.131 253.637 253.035 255.945C253.215 256.401 253.446 256.835 253.727 257.236L267.146 276.459V308.793C267.146 317.361 270.827 325.392 277.038 330.993L277.635 336.126C277.61 336.157 277.581 336.185 277.557 336.217L270.922 344.76L257.004 346.923C232.16 350.785 214.127 371.838 214.127 396.98V415.808C214.127 419.246 216.914 422.033 220.353 422.033H310.006H330.941H418.774C422.212 422.033 424.999 419.246 424.999 415.808V397.114C424.999 385.003 420.652 373.276 412.758 364.092ZM298.578 246.232C302.64 248.49 307.31 249.781 312.277 249.781H349.411C355.241 249.781 359.984 254.524 359.984 260.353V274.543C359.984 274.551 359.984 274.559 359.984 274.568V274.577V308.875C359.984 315.179 356.569 321.011 351.071 324.095L332.176 334.695C328.963 336.497 325.318 337.45 321.635 337.45H318.325C314.68 337.45 311.069 336.516 307.881 334.749L288.588 324.057C288.042 323.754 287.523 323.418 287.019 323.063C286.769 322.844 286.504 322.644 286.221 322.467C282.083 319.19 279.597 314.172 279.597 308.792V274.5V259.806C287.924 258.706 294.963 253.467 298.578 246.232ZM320.266 366.129L291.66 339.995L301.845 345.64C306.877 348.428 312.575 349.902 318.326 349.902H321.635C327.448 349.902 333.199 348.399 338.268 345.555L349.977 338.987L320.266 366.129ZM283.253 349.18L309.637 373.285L296.645 383.206L281.583 351.33L283.253 349.18ZM316.132 383.991L320.266 380.834L324.667 384.194C323.725 385.51 322.183 386.372 320.473 386.372C318.653 386.372 317.049 385.425 316.132 383.991ZM330.894 373.285L357.279 349.181L358.948 351.33L343.886 383.206L330.894 373.285ZM264.123 248.734V237.25C264.123 221.575 276.876 208.823 292.551 208.823C294.209 208.823 295.798 208.162 296.966 206.987C298.135 205.811 298.786 204.218 298.777 202.561C298.769 201.341 299.256 200.209 300.145 199.373C301.034 198.537 302.202 198.126 303.411 198.207L338.87 200.633C357.856 201.932 372.727 217.857 372.727 236.886V250.533C372.727 251.935 372.552 253.327 372.205 254.683L371.849 255.207C369.504 244.983 360.339 237.33 349.413 237.33H312.279C303.544 237.33 296.437 230.223 296.437 221.488V218.981C296.437 215.542 293.649 212.755 290.211 212.755C286.773 212.755 283.985 215.542 283.985 218.981V221.488C283.985 227.186 285.685 232.492 288.594 236.938C287.727 242.939 282.564 247.57 276.325 247.57H273.372C269.934 247.57 267.147 250.357 267.147 253.796V254.708L264.425 250.809C264.225 250.135 264.123 249.44 264.123 248.734ZM226.578 396.98C226.578 378.017 240.178 362.139 258.916 359.226L270.68 357.398L288.677 395.485C289.481 397.184 291.008 398.43 292.835 398.874C293.321 398.993 293.815 399.05 294.306 399.05C295.658 399.05 296.989 398.609 298.084 397.773L306.222 391.559C306.356 391.743 306.506 391.913 306.647 392.092L304.499 409.581H226.579L226.578 396.98ZM317.043 409.582L318.381 398.687C319.07 398.768 319.764 398.824 320.474 398.824C321.184 398.824 321.879 398.769 322.567 398.689L323.904 409.582H317.043V409.582ZM412.548 409.582H336.448L334.306 392.143C334.403 392.021 334.503 391.902 334.596 391.778L342.447 397.774C343.543 398.61 344.873 399.051 346.226 399.051C346.716 399.051 347.21 398.993 347.696 398.875C349.523 398.431 351.051 397.185 351.854 395.486L369.68 357.76L380.079 359.341C398.893 362.198 412.548 378.084 412.548 397.114V409.582Z" fill="black"/>
<path d="M298.761 289.041C302.245 289.041 305.069 286.216 305.069 282.733C305.069 279.249 302.245 276.425 298.761 276.425C295.277 276.425 292.453 279.249 292.453 282.733C292.453 286.216 295.277 289.041 298.761 289.041Z" fill="black"/>
<path d="M342.191 288.858C345.674 288.858 348.498 286.034 348.498 282.55C348.498 279.067 345.674 276.242 342.191 276.242C338.707 276.242 335.883 279.067 335.883 282.55C335.883 286.034 338.707 288.858 342.191 288.858Z" fill="black"/>
<path d="M305.181 311.323C309.089 315.841 314.752 318.431 320.721 318.431C326.374 318.431 331.64 316.183 335.552 312.102C337.963 309.587 337.877 305.593 335.362 303.183C332.846 300.772 328.854 300.857 326.443 303.373C324.933 304.948 322.901 305.816 320.721 305.816C318.417 305.816 316.232 304.815 314.723 303.071C312.445 300.436 308.461 300.148 305.826 302.426C303.191 304.705 302.903 308.689 305.181 311.323Z" fill="black"/>
<path d="M148.608 117.639C146.097 117.639 144.08 118.537 142.556 120.329C141.03 122.123 140.27 124.275 140.27 126.784C140.27 129.206 141.03 131.336 142.556 133.173C144.079 135.011 146.097 135.93 148.608 135.93C151.116 135.93 153.269 135.012 155.063 133.173C156.856 131.336 157.753 129.206 157.753 126.784C157.753 124.275 156.856 122.123 155.063 120.329C153.269 118.537 151.116 117.639 148.608 117.639Z" fill="black"/>
<path d="M161.923 85.3619C169.941 78.6541 177.927 70.159 177.927 59.0028C177.927 52.4584 175.416 47.0331 170.395 42.7299C165.373 38.4268 158.649 36.2744 150.223 36.2744C142.692 36.2744 136.683 37.9786 132.201 41.3844C127.717 44.7927 125.477 48.3778 125.477 52.1438C125.477 54.2074 126.168 55.7979 127.553 56.9185C128.937 58.0407 130.479 58.5994 132.178 58.5994C133.517 58.5994 134.7 58.1437 135.727 57.2272C136.755 56.3133 137.627 55.3363 138.341 54.2962C139.056 53.2578 140.396 52.2808 142.363 51.3652C150.939 47.375 164.173 51.2391 163.512 62.221C163.037 70.1275 155.935 74.9444 150.356 79.5065C144.978 84.2936 142.287 91.2953 142.287 100.512C142.287 103.349 142.758 105.299 143.699 106.362C144.641 107.425 146.231 107.957 148.473 107.957C152.955 107.957 155.197 106.343 155.197 103.116C155.197 98.5427 155.554 95.0464 156.273 92.6251C156.99 90.2038 158.873 87.7833 161.923 85.3619Z" fill="black"/>
<path d="M219.068 141.595C233.947 156.59 253.677 165.146 274.625 165.685C280.457 165.838 286.271 165.368 291.953 164.296C302.937 173.866 315.086 177.51 319.278 178.768C323.338 179.986 327.539 180.869 331.765 181.392C332.172 181.443 332.577 181.467 332.978 181.467C336.474 181.467 339.696 179.592 341.408 176.475C343.325 172.981 342.919 168.729 340.371 165.642C335.199 159.373 332.329 151.581 330.747 145.226C348.37 129.618 358.305 107.431 358.137 83.7516C357.82 38.9025 321.048 2.65046 276.202 2.96838C254.299 3.1178 233.81 11.8403 218.508 27.5279C203.212 43.2114 195.008 63.9243 195.407 85.8533C195.682 100.96 200.148 115.455 208.184 127.993C195.512 143.368 176.604 152.727 156.786 153.237C150.89 153.392 145.011 152.798 139.327 151.479C137.26 151 135.09 151.606 133.572 153.088C124.188 162.246 112.662 165.704 108.875 166.841C107.616 167.218 106.341 167.557 105.055 167.857C109.189 161.205 112.184 153.246 113.985 144.104C114.433 141.834 113.584 139.503 111.782 138.051C95.2755 124.762 85.8948 105.002 86.0451 83.8379C86.314 45.8519 117.416 15.1398 155.445 15.4179C168.651 15.5075 181.458 19.3433 192.482 26.5111C195.364 28.3854 199.22 27.5686 201.095 24.6857C202.969 21.8029 202.151 17.9471 199.269 16.0728C186.245 7.60686 171.121 3.07463 155.529 2.96838C155.34 2.96755 155.156 2.96672 154.967 2.96672C110.363 2.96672 73.9101 39.0917 73.5939 83.7516C73.4262 107.431 83.3606 129.618 100.984 145.226C99.4018 151.581 96.5331 159.373 91.3609 165.642C88.8134 168.728 88.4058 172.981 90.3233 176.475C92.0357 179.593 95.2573 181.468 98.7527 181.468C99.1537 181.468 99.5596 181.443 99.9655 181.393C104.192 180.87 108.393 179.987 112.452 178.769C116.644 177.511 128.794 173.867 139.778 164.297C145.46 165.369 151.271 165.836 157.106 165.686C179.533 165.108 200.958 154.952 215.863 138.158C216.899 139.326 217.96 140.478 219.068 141.595ZM227.421 36.2221C240.381 22.9343 257.735 15.5457 276.286 15.4196C276.445 15.4187 276.602 15.4179 276.762 15.4179C314.542 15.4179 345.418 46.0137 345.685 83.8396C345.835 105.003 336.455 124.763 319.949 138.053C318.146 139.504 317.297 141.835 317.745 144.106C319.545 153.247 322.541 161.207 326.676 167.858C325.389 167.559 324.114 167.22 322.856 166.842C319.068 165.706 307.543 162.248 298.158 153.09C296.982 151.942 295.417 151.32 293.81 151.32C293.342 151.32 292.871 151.372 292.404 151.481C286.721 152.799 280.849 153.39 274.945 153.239C257.22 152.783 240.515 145.533 227.907 132.826C215.3 120.119 208.179 103.357 207.856 85.6276C207.518 67.0512 214.466 49.5051 227.421 36.2221Z" fill="black"/>
<path d="M284.971 130.667H268.56C265.121 130.667 262.334 133.454 262.334 136.892C262.334 140.331 265.121 143.118 268.56 143.118H284.971C288.409 143.118 291.197 140.331 291.197 136.892C291.197 133.454 288.409 130.667 284.971 130.667Z" fill="black"/>
<path d="M250.429 96.1397C252.884 98.3685 254.292 101.568 254.292 104.916V109.78C254.292 116.604 259.843 122.156 266.668 122.156H286.861C293.685 122.156 299.237 116.604 299.237 109.78V104.916C299.237 101.577 300.668 98.3585 303.16 96.0858C311.294 88.6723 315.959 78.1121 315.959 67.1135C315.959 56.5408 311.813 46.6297 304.285 39.2055C296.758 31.7821 286.799 27.7778 276.208 27.9222C255.304 28.2136 237.974 45.4543 237.577 66.3549C237.362 77.6755 242.046 88.532 250.429 96.1397ZM276.38 40.3726C283.602 40.2572 290.405 43.0056 295.541 48.0707C300.678 53.1367 303.507 59.8993 303.507 67.1135C303.507 74.6183 300.323 81.8242 294.772 86.8835C289.696 91.5095 286.784 98.0829 286.784 104.916V109.705H266.742V104.916C266.742 98.063 263.846 91.5037 258.796 86.92C253.075 81.7279 249.878 74.3178 250.024 66.5906C250.296 52.3323 262.119 40.571 276.38 40.3726Z" fill="black"/>
<path d="M83.7628 285.496C87.2465 285.496 90.0706 282.672 90.0706 279.188C90.0706 275.705 87.2465 272.881 83.7628 272.881C80.2792 272.881 77.4551 275.705 77.4551 279.188C77.4551 282.672 80.2792 285.496 83.7628 285.496Z" fill="black"/>
<path d="M127.458 285.222C130.942 285.222 133.766 282.398 133.766 278.914C133.766 275.431 130.942 272.607 127.458 272.607C123.974 272.607 121.15 275.431 121.15 278.914C121.15 282.398 123.974 285.222 127.458 285.222Z" fill="black"/>
<path d="M96.4542 317.116H117.5C120.984 317.116 123.808 314.292 123.808 310.808C123.808 307.324 120.984 304.5 117.5 304.5H96.4542C92.9704 304.5 90.1465 307.324 90.1465 310.808C90.1465 314.292 92.9712 317.116 96.4542 317.116Z" fill="black"/>
</svg>
