<svg width="289" height="277" viewBox="0 0 289 277" fill="none" xmlns="http://www.w3.org/2000/svg">
<line x1="93" y1="68" x2="208" y2="68" stroke="black" stroke-width="8"/>
<line x1="75" y1="45" x2="186" y2="45" stroke="black" stroke-width="8"/>
<line x1="182" y1="41" x2="182" y2="72" stroke="black" stroke-width="8"/>
<line x1="79" y1="41" x2="79" y2="72" stroke="black" stroke-width="8"/>
<line x1="83" y1="68" x2="52" y2="68" stroke="black" stroke-width="8"/>
<line x1="55" y1="236" x2="55" y2="64" stroke="black" stroke-width="8"/>
<line x1="125" y1="232" x2="51" y2="232" stroke="black" stroke-width="8"/>
<line x1="205" y1="64" x2="205" y2="157" stroke="black" stroke-width="8"/>
<rect x="124" y="161" width="110" height="79" rx="11" stroke="black" stroke-width="8"/>
<rect x="79" y="87" width="18" height="9" fill="black"/>
<rect x="120" y="87" width="18" height="9" fill="black"/>
<rect x="120" y="111" width="18" height="9" fill="black"/>
<rect x="120" y="135" width="18" height="9" fill="black"/>
<rect x="161" y="111" width="18" height="9" fill="black"/>
<rect x="161" y="135" width="18" height="9" fill="black"/>
<rect x="161" y="87" width="18" height="9" fill="black"/>
<rect x="79" y="111" width="18" height="9" fill="black"/>
<rect x="79" y="135" width="18" height="9" fill="black"/>
<rect x="79" y="159" width="18" height="9" fill="black"/>
<rect x="79" y="183" width="18" height="9" fill="black"/>
<rect x="79" y="207" width="18" height="9" fill="black"/>
<path d="M180.599 222.782H176.868L176.052 229.427H181.415L180.599 222.782Z" fill="black"/>
<path d="M181.648 220.566C181.648 222.176 180.343 223.481 178.733 223.481C177.123 223.481 175.818 222.176 175.818 220.566V218.643H181.648L181.648 220.566Z" fill="black"/>
<path d="M192.12 200.008H190.115V193.246H192.12C192.99 193.246 193.695 193.952 193.695 194.821V198.433C193.695 199.303 192.99 200.008 192.12 200.008Z" fill="black"/>
<path d="M164.992 200.008H167.133V193.246H164.992C164.122 193.246 163.417 193.952 163.417 194.821V198.433C163.417 199.303 164.122 200.008 164.992 200.008Z" fill="#F7B89C"/>
<path d="M171.208 185.299C170.803 185.299 170.356 185.19 169.906 185.021C168.405 184.458 166.72 184.9 165.712 186.147C165.033 186.986 164.076 187.591 162.98 187.82C162.964 187.849 162.957 187.862 162.941 187.891L165.034 193.227H166.666V187.922H167.422C169.285 187.922 170.897 186.855 171.684 185.299L171.208 185.299Z" fill="black"/>
<path d="M199.736 214.461C198.155 213.318 196.359 212.594 194.406 212.312L191.132 211.815L189.218 209.35C189.033 209.111 188.756 208.961 188.454 208.935C188.153 208.909 187.854 209.011 187.631 209.215L178.68 217.392L169.73 209.215C169.506 209.011 169.208 208.909 168.906 208.935C168.605 208.961 168.328 209.111 168.142 209.35L166.318 211.699L162.552 212.285C159.615 212.741 156.932 214.236 154.999 216.493C153.065 218.751 152 221.631 152 224.604V229.427C152 230.026 152.485 230.511 153.084 230.511H176.052H181.415H203.916C204.515 230.511 205 230.026 205 229.427V224.638C205 224.631 205 224.625 205 224.618C204.904 219.299 202.085 216.159 199.736 214.461ZM188.226 211.608L189.185 212.843L184.923 221.864L180.607 218.568L188.226 211.608ZM178.733 222.397C177.917 222.397 177.223 221.862 176.989 221.117L178.68 219.825L180.455 221.181C180.2 221.889 179.515 222.397 178.733 222.397ZM169.134 211.608L176.753 218.568L172.437 221.864L168.175 212.843L169.134 211.608ZM154.168 224.604C154.168 222.148 155.048 219.769 156.645 217.904C158.243 216.039 160.459 214.805 162.885 214.427L166.276 213.9L171.049 224.003C171.189 224.298 171.455 224.515 171.773 224.593C171.858 224.613 171.944 224.623 172.029 224.623C172.265 224.623 172.497 224.547 172.687 224.401L175.215 222.47C175.358 222.733 175.528 222.979 175.724 223.201L175.092 228.343H154.168V224.604ZM177.277 228.343L177.756 224.445C178.069 224.523 178.396 224.565 178.733 224.565C179.071 224.565 179.398 224.524 179.711 224.447L180.189 228.343H177.277ZM202.831 228.343H182.374L181.744 223.21C181.926 223.002 182.087 222.775 182.224 222.531L184.672 224.401C184.863 224.547 185.095 224.624 185.331 224.624C185.416 224.624 185.502 224.614 185.587 224.593C185.905 224.516 186.171 224.299 186.311 224.003L191.04 213.994L194.087 214.457C195.699 214.69 197.172 215.283 198.466 216.219C200.412 217.626 202.748 220.23 202.831 224.648V228.343Z" fill="black"/>
<path d="M154.168 224.604C154.168 222.148 155.048 219.769 156.645 217.904C158.243 216.039 160.459 214.805 162.885 214.427L166.276 213.9L171.049 224.003C171.189 224.298 171.455 224.515 171.773 224.593C171.858 224.613 171.944 224.623 172.029 224.623C172.265 224.623 172.497 224.547 172.687 224.401L175.215 222.47C175.358 222.733 175.528 222.979 175.724 223.201L175.092 228.343H154.168V224.604Z" fill="black"/>
<path d="M169.134 211.608L176.753 218.568L172.437 221.864L168.175 212.843L169.134 211.608Z" fill="black"/>
<path d="M188.226 211.608L189.185 212.843L184.923 221.864L180.607 218.568L188.226 211.608Z" fill="black"/>
<path d="M178.733 222.397C177.917 222.397 177.223 221.862 176.989 221.117L178.68 219.825L180.455 221.181C180.2 221.889 179.515 222.397 178.733 222.397Z" fill="black"/>
<path d="M177.277 228.343L177.756 224.445C178.069 224.523 178.396 224.565 178.733 224.565C179.071 224.565 179.398 224.524 179.711 224.447L180.189 228.343H177.277Z" fill="black"/>
<path d="M202.831 228.343H182.374L181.744 223.21C181.926 223.002 182.087 222.775 182.224 222.531L184.672 224.401C184.863 224.547 185.095 224.624 185.331 224.624C185.416 224.624 185.502 224.614 185.587 224.593C185.905 224.516 186.171 224.299 186.311 224.003L191.04 213.994L194.087 214.457C195.699 214.69 197.172 215.283 198.466 216.219C200.412 217.626 202.748 220.23 202.831 224.648V228.343Z" fill="black"/>
<path d="M163.606 192.556C162.844 193.024 162.333 193.863 162.333 194.821V198.433C162.333 199.9 163.526 201.093 164.992 201.093H165.582V202.012C165.582 204.61 166.994 207.006 169.266 208.266L174.208 211.005C175.422 211.677 176.796 212.032 178.183 212.032H179.031C180.432 212.032 181.819 211.67 183.042 210.984L187.883 208.269C190.135 207.005 191.534 204.616 191.534 202.033V201.093H192.12C193.586 201.093 194.779 199.9 194.779 198.433V194.821C194.779 193.835 194.238 192.975 193.439 192.516L194.484 189.156C194.693 188.486 194.799 187.789 194.799 187.087V183.591C194.799 177.312 189.892 172.059 183.629 171.63L174.545 171.009C173.496 170.936 172.457 171.308 171.691 172.028C171.185 172.503 170.823 173.108 170.638 173.766C165.585 174.243 161.618 178.509 161.618 183.684V186.626C161.618 187.197 161.724 187.755 161.932 188.287L163.606 192.556ZM165.563 198.924H164.992C164.722 198.924 164.501 198.704 164.501 198.433V194.821C164.501 194.551 164.721 194.331 164.992 194.331H165.563C165.563 196.125 165.563 198.924 165.563 198.924ZM189.366 202.033C189.366 203.832 188.391 205.497 186.822 206.377L181.981 209.093C181.082 209.597 180.062 209.864 179.031 209.864H178.183C177.163 209.864 176.152 209.602 175.26 209.108L170.317 206.369C168.734 205.491 167.751 203.822 167.751 202.012V193.227V188.997C170.1 188.867 172.083 187.346 172.892 185.246C173.963 185.964 175.25 186.383 176.633 186.383H186.147C187.922 186.383 189.366 187.827 189.366 189.602V193.246L189.366 202.033ZM192.611 198.433C192.611 198.704 192.391 198.924 192.12 198.924H191.549V194.331H192.12C192.39 194.331 192.611 194.551 192.611 194.821V198.433ZM163.787 183.684C163.787 179.387 167.283 175.891 171.58 175.891C171.869 175.891 172.145 175.776 172.349 175.571C172.552 175.366 172.666 175.089 172.664 174.8C172.661 174.344 172.843 173.921 173.176 173.608C173.508 173.296 173.942 173.142 174.397 173.172L183.481 173.794C188.611 174.145 192.63 178.448 192.63 183.591V187.087C192.63 187.571 192.557 188.05 192.413 188.512L191.534 191.338V189.602C191.534 186.632 189.117 184.215 186.146 184.215H176.633C174.114 184.215 172.064 182.165 172.064 179.646V179.004C172.064 178.405 171.579 177.919 170.98 177.919C170.381 177.919 169.896 178.405 169.896 179.004V179.646C169.896 181.069 170.341 182.39 171.097 183.479C170.929 185.359 169.345 186.838 167.422 186.838H166.668C166.667 186.838 166.667 186.838 166.666 186.838C166.067 186.838 165.582 187.323 165.582 187.922V191.654L163.951 187.495C163.842 187.217 163.786 186.924 163.786 186.626V183.684H163.787Z" fill="black"/>
<path d="M163.787 183.684C163.787 179.387 167.283 175.891 171.58 175.891C171.869 175.891 172.145 175.776 172.349 175.571C172.552 175.366 172.666 175.089 172.664 174.8C172.661 174.344 172.843 173.921 173.176 173.608C173.508 173.296 173.942 173.142 174.397 173.172L183.481 173.794C188.611 174.145 192.63 178.448 192.63 183.591V187.087C192.63 187.571 192.557 188.05 192.413 188.512L191.534 191.338V189.602C191.534 186.632 189.117 184.215 186.146 184.215H176.633C174.114 184.215 172.064 182.165 172.064 179.646V179.004C172.064 178.405 171.579 177.919 170.98 177.919C170.381 177.919 169.896 178.405 169.896 179.004V179.646C169.896 181.069 170.341 182.39 171.097 183.479C170.929 185.359 169.345 186.838 167.422 186.838H166.668H166.666C166.067 186.838 165.582 187.323 165.582 187.922V191.654L163.951 187.495C163.842 187.217 163.786 186.924 163.786 186.626V183.684H163.787Z" fill="black"/>
<path d="M189.366 202.033C189.366 203.832 188.391 205.497 186.822 206.377L181.981 209.093C181.082 209.597 180.062 209.864 179.031 209.864H178.183C177.163 209.864 176.152 209.602 175.26 209.108L170.317 206.369C168.734 205.491 167.751 203.822 167.751 202.012V193.227V188.997C170.1 188.867 172.083 187.346 172.892 185.246C173.963 185.964 175.25 186.383 176.633 186.383H186.147C187.922 186.383 189.366 187.827 189.366 189.602V193.246L189.366 202.033Z" fill="black"/>
<path d="M165.563 198.924H164.992C164.722 198.924 164.501 198.704 164.501 198.433V194.821C164.501 194.551 164.721 194.331 164.992 194.331H165.563V198.924Z" fill="black"/>
<path d="M192.611 198.433C192.611 198.704 192.391 198.924 192.12 198.924H191.549V194.331H192.12C192.39 194.331 192.611 194.551 192.611 194.821V198.433Z" fill="black"/>
<path d="M173.28 196.176C173.879 196.176 174.364 195.69 174.364 195.091C174.364 194.493 173.879 194.007 173.28 194.007C172.681 194.007 172.196 194.493 172.196 195.091C172.196 195.69 172.681 196.176 173.28 196.176Z" fill="black"/>
<path d="M184.033 196.131C184.632 196.131 185.117 195.645 185.117 195.047C185.117 194.448 184.632 193.962 184.033 193.962C183.434 193.962 182.948 194.448 182.948 195.047C182.948 195.645 183.434 196.131 184.033 196.131Z" fill="black"/>
<path d="M182.896 200.937C182.459 200.549 181.791 200.589 181.403 201.025C180.774 201.733 179.907 202.143 178.961 202.178C177.961 202.216 176.998 201.818 176.315 201.087C175.917 200.66 175.248 200.637 174.821 201.035C174.394 201.433 174.371 202.102 174.77 202.529C175.824 203.659 177.294 204.295 178.831 204.295C178.901 204.295 178.971 204.294 179.041 204.291C180.568 204.234 181.969 203.572 182.984 202.43C183.372 201.993 183.332 201.325 182.896 200.937Z" fill="black"/>
<path d="M168.888 210.199L169.394 206.729H187.393L188.766 210.199L178.719 218.367L168.888 210.199Z" fill="black" stroke="black"/>
</svg>
