<svg width="24" height="24" viewBox="0 0 24 24" fill="none" xmlns="http://www.w3.org/2000/svg">
<g clip-path="url(#clip0_57_2)">
<path d="M23.4912 24V22.824C23.4912 22.038 23.0312 21.325 22.3152 21.001L20.1002 20L18.4852 21.75L16.8832 20L14.6682 21.001C13.9522 21.325 13.4922 22.038 13.4922 22.824V24" stroke="#212529" stroke-miterlimit="10"/>
<path d="M18.493 18.5C17.4 18.5 16.491 17.661 16.403 16.571L16.343 15.829C16.242 14.574 17.233 13.5 18.493 13.5C19.752 13.5 20.744 14.574 20.643 15.829L20.583 16.571C20.495 17.661 19.586 18.5 18.493 18.5Z" stroke="#212529" stroke-miterlimit="10"/>
<path d="M10.4912 24V22.824C10.4912 22.038 10.0312 21.325 9.31519 21.001L7.10019 20L5.48519 21.75L3.88319 20L1.66819 21.001C0.952187 21.325 0.492188 22.038 0.492188 22.824V24" stroke="#212529" stroke-miterlimit="10"/>
<path d="M5.49303 18.5C4.40003 18.5 3.49103 17.661 3.40303 16.571L3.34303 15.829C3.24203 14.574 4.23303 13.5 5.49303 13.5C6.75203 13.5 7.74403 14.574 7.64303 15.829L7.58303 16.571C7.49503 17.661 6.58603 18.5 5.49303 18.5Z" stroke="#212529" stroke-miterlimit="10"/>
<path d="M10.5 15V16.5C10.5 17.052 10.948 17.5 11.5 17.5H12.5C13.052 17.5 13.5 17.052 13.5 16.5V15" stroke="#E5B349" stroke-miterlimit="10"/>
<path d="M9.5 13H14.5" stroke="#E5B349" stroke-miterlimit="10"/>
<path d="M17.4963 5.99985C17.4963 2.57485 14.3663 -0.118146 10.8103 0.623854C8.68835 1.06685 6.99135 2.81185 6.59435 4.94385C6.22635 6.92385 6.92035 8.75585 8.20335 9.97785C8.98935 10.7259 9.49635 11.7189 9.49635 12.8049V14.4999C9.49635 15.0519 9.94435 15.4999 10.4963 15.4999H13.4963C14.0483 15.4999 14.4963 15.0519 14.4963 14.4999V12.9129C14.4963 11.7929 14.9863 10.7449 15.7963 9.97085C16.8433 8.97085 17.4963 7.56285 17.4963 5.99985Z" stroke="#E5B349" stroke-miterlimit="10"/>
</g>
<defs>
<clipPath id="clip0_57_2">
<rect width="24" height="24" fill="white"/>
</clipPath>
</defs>
</svg>
