<svg width="24" height="24" viewBox="0 0 24 24" fill="none" xmlns="http://www.w3.org/2000/svg">
<path d="M12.4922 11V9.824C12.4922 9.038 12.0322 8.325 11.3162 8.001L9.10119 7L7.48519 8.75L5.88419 7L3.66919 8.001C2.95219 8.325 2.49219 9.038 2.49219 9.824V11" stroke="#212529" stroke-miterlimit="10"/>
<path d="M7.49289 5.5C6.39989 5.5 5.49089 4.661 5.40289 3.571L5.34289 2.829C5.24289 1.574 6.23389 0.5 7.49289 0.5C8.75189 0.5 9.74389 1.574 9.64289 2.829L9.58289 3.571C9.49489 4.661 8.58589 5.5 7.49289 5.5Z" stroke="#212529" stroke-miterlimit="10"/>
<path d="M0 12.5H15" stroke="#E5B349" stroke-miterlimit="10"/>
<path d="M11.8203 14.504L11.9983 12.5" stroke="#E5B349" stroke-miterlimit="10"/>
<path d="M3 12.5L4 23.75" stroke="#E5B349" stroke-miterlimit="10"/>
<path d="M16.5 23.985V22.976C16.5 22.426 16.822 21.927 17.323 21.7L18.874 21H21.126L22.676 21.701C23.177 21.928 23.499 22.427 23.499 22.977V23.986" stroke="#212529" stroke-miterlimit="10"/>
<path d="M20.0008 19.5C19.2408 19.5 18.6078 18.913 18.5468 18.15L18.5048 17.631C18.4358 16.752 19.1248 16 20.0008 16C20.8768 16 21.5658 16.752 21.4958 17.63L21.4538 18.149C21.3938 18.912 20.7608 19.5 20.0008 19.5Z" stroke="#212529" stroke-miterlimit="10"/>
<path d="M7.49219 23.985V22.976C7.49219 22.426 7.81419 21.927 8.31519 21.7L9.86619 21H12.1182L13.6682 21.701C14.1692 21.928 14.4912 22.427 14.4912 22.977V23.986" stroke="#212529" stroke-miterlimit="10"/>
<path d="M10.9921 19.5C10.2321 19.5 9.59909 18.913 9.53809 18.15L9.49709 17.63C9.42709 16.752 10.1161 16 10.9921 16C11.8681 16 12.5571 16.752 12.4871 17.63L12.4451 18.149C12.3851 18.912 11.7521 19.5 10.9921 19.5Z" stroke="#212529" stroke-miterlimit="10"/>
</svg>
