<?xml version="1.0" encoding="utf-8"?>
<!-- Generator: Adobe Illustrator 24.1.0, SVG Export Plug-In . SVG Version: 6.00 Build 0)  -->
<svg version="1.1" id="Layer_1" xmlns="http://www.w3.org/2000/svg" xmlns:xlink="http://www.w3.org/1999/xlink" x="0px" y="0px"
	 viewBox="0 0 29 35" style="enable-background:new 0 0 29 35;" xml:space="preserve">
<style type="text/css">
	.st0{fill:#232323;}
	.st1{fill:#FF5000;}
	.st2{fill:#FF4713;}
	.st3{fill:none;stroke:#FF4713;stroke-width:1.2759;stroke-linecap:round;stroke-miterlimit:10;}
	.st4{fill:none;stroke:#FF5000;stroke-width:1.3;stroke-linecap:round;stroke-miterlimit:10;}
	.st5{fill:none;stroke:#232323;stroke-linecap:round;stroke-miterlimit:10;}
	.st6{fill:none;stroke:#FF5000;stroke-linecap:round;stroke-miterlimit:10;}
	.st7{fill:none;stroke:#FF5000;stroke-width:1.3;stroke-linecap:round;}
	.st8{fill:#242424;}
	.st9{fill:none;stroke:#232323;stroke-width:1.2504;stroke-miterlimit:10;}
	.st10{fill:none;stroke:#FF5000;stroke-width:1.2504;stroke-linecap:round;stroke-linejoin:round;stroke-miterlimit:10;}
	.st11{fill:none;stroke:#232323;stroke-width:1.0223;stroke-linecap:round;stroke-miterlimit:10;}
	.st12{fill:none;stroke:#FF5000;stroke-width:1.0223;stroke-linecap:round;stroke-miterlimit:10;}
	
		.st13{fill-rule:evenodd;clip-rule:evenodd;fill:none;stroke:#FF5000;stroke-width:1.1057;stroke-linecap:round;stroke-linejoin:round;stroke-miterlimit:10;}
	
		.st14{fill-rule:evenodd;clip-rule:evenodd;fill:none;stroke:#232323;stroke-width:1.1057;stroke-linecap:round;stroke-linejoin:round;stroke-miterlimit:10;}
	.st15{fill:none;stroke:#232323;stroke-width:1.0361;stroke-miterlimit:10;}
	.st16{fill:none;stroke:#FF5000;stroke-width:1.0361;stroke-linecap:round;stroke-linejoin:round;stroke-miterlimit:10;}
	.st17{fill:none;stroke:#FF5000;stroke-miterlimit:10;}
	.st18{fill:none;stroke:#232323;stroke-width:1.1188;stroke-miterlimit:10;}
	.st19{fill:none;stroke:#FF5000;stroke-width:0.9287;stroke-miterlimit:10;}
	.st20{fill:none;stroke:#FF5000;stroke-width:1.0695;stroke-linejoin:round;stroke-miterlimit:10;}
	.st21{fill:none;stroke:#FF5000;stroke-width:1.0695;stroke-linecap:round;stroke-linejoin:round;stroke-miterlimit:10;}
	.st22{fill:none;stroke:#232323;stroke-width:1.1938;stroke-linecap:round;stroke-miterlimit:10;}
	.st23{fill:none;stroke:#FF5000;stroke-width:1.4922;stroke-linecap:round;stroke-miterlimit:10;}
	.st24{fill-rule:evenodd;clip-rule:evenodd;fill:none;stroke:#FF5000;stroke-width:0.9183;stroke-miterlimit:10;}
	.st25{fill-rule:evenodd;clip-rule:evenodd;fill:none;stroke:#232323;stroke-width:0.9183;stroke-miterlimit:10;}
	.st26{fill:none;stroke:#232323;stroke-width:0.9183;stroke-miterlimit:10;}
	.st27{fill-rule:evenodd;clip-rule:evenodd;fill:none;stroke:#F15A22;stroke-width:0.9183;stroke-miterlimit:10;}
	.st28{fill-rule:evenodd;clip-rule:evenodd;fill:#FF5000;}
	.st29{fill-rule:evenodd;clip-rule:evenodd;fill:#232323;}
</style>
<g>
	<path class="st0" d="M21.11,15.96c-0.22,0-0.43-0.12-0.54-0.32c-0.68-1.25-2.18-2.51-3.49-2.94c-0.25-0.08-0.44-0.31-0.44-0.59
		c0-0.34,0.28-0.62,0.62-0.62h0.1l0.09,0.03c1.61,0.52,3.37,2.01,4.2,3.53c0.16,0.3,0.05,0.67-0.25,0.84
		C21.31,15.94,21.21,15.96,21.11,15.96"/>
	<path class="st0" d="M7.89,15.79c-0.1,0-0.2-0.02-0.29-0.08c-0.3-0.16-0.41-0.54-0.25-0.84c0.78-1.43,2.55-2.83,4.31-3.4l0.09-0.03
		h0.1c0.34,0,0.62,0.28,0.62,0.62c0,0.28-0.19,0.52-0.45,0.59c-1.45,0.48-2.96,1.66-3.59,2.81C8.32,15.67,8.11,15.79,7.89,15.79"/>
	<path class="st0" d="M16.2,11.04 M12.62,11.78c1.24,0.93,2.47,0.92,3.82-0.02l-0.12-0.36c-1.24,0.53-2.44,0.54-3.58,0.03
		L12.62,11.78z M14.47,13.7c-1.02,0-2.02-0.42-2.98-1.25l-0.31-0.27l0.51-1.51c0.08-0.25,0.27-0.45,0.52-0.55
		c0.25-0.1,0.53-0.08,0.76,0.05c0.99,0.54,2.02,0.53,3.14-0.03c0.23-0.12,0.51-0.13,0.75-0.03c0.24,0.1,0.42,0.3,0.51,0.54
		l0.52,1.55l-0.34,0.27C16.52,13.29,15.49,13.7,14.47,13.7"/>
	<path class="st0" d="M14.52,2.48c-1.47,0-2.67,1.39-2.67,3.1c0,1.71,1.2,3.1,2.67,3.1c1.47,0,2.67-1.39,2.67-3.1
		C17.2,3.88,16,2.48,14.52,2.48 M14.52,9.93c-2.15,0-3.91-1.95-3.91-4.34c0-2.39,1.75-4.34,3.91-4.34c2.15,0,3.91,1.94,3.91,4.34
		C18.43,7.98,16.68,9.93,14.52,9.93"/>
	<path class="st0" d="M24.14,24.32H4.86c-0.71,0-1.29-0.58-1.29-1.29v-2.66c0-0.34,0.28-0.62,0.62-0.62c0.34,0,0.62,0.28,0.62,0.62
		v2.66c0,0.03,0.03,0.06,0.06,0.06h19.27c0.03,0,0.06-0.03,0.06-0.06v-0.3c0-0.34,0.28-0.62,0.62-0.62c0.34,0,0.62,0.28,0.62,0.62
		v0.3C25.43,23.74,24.85,24.32,24.14,24.32"/>
	<path class="st0" d="M8.4,33.75c-0.29,0-0.55-0.21-0.61-0.51l-1.69-9.43c-0.06-0.33,0.16-0.66,0.5-0.72
		c0.34-0.06,0.66,0.16,0.72,0.5l1.69,9.42c0.06,0.34-0.16,0.66-0.5,0.72C8.48,33.74,8.44,33.75,8.4,33.75"/>
	<path class="st0" d="M20.47,33.75c-0.04,0-0.07,0-0.11-0.01c-0.34-0.06-0.56-0.38-0.5-0.72l1.69-9.42c0.06-0.34,0.38-0.56,0.72-0.5
		c0.33,0.06,0.56,0.38,0.5,0.72l-1.69,9.43C21.02,33.54,20.76,33.75,20.47,33.75"/>
	<path class="st1" d="M24.81,21.49c-0.34,0-0.62-0.28-0.62-0.62v-1.76c0-0.03-0.03-0.06-0.06-0.06H4.86c-0.34,0-0.62-0.28-0.62-0.62
		c0-0.34,0.28-0.62,0.62-0.62h19.27c0.71,0,1.29,0.58,1.29,1.29v1.76C25.43,21.21,25.15,21.49,24.81,21.49"/>
</g>
</svg>
