<?xml version="1.0" encoding="utf-8"?>
<!-- Generator: Adobe Illustrator 24.1.0, SVG Export Plug-In . SVG Version: 6.00 Build 0)  -->
<svg version="1.1" id="Layer_1" xmlns="http://www.w3.org/2000/svg" xmlns:xlink="http://www.w3.org/1999/xlink" x="0px" y="0px"
	 viewBox="0 0 29 35" style="enable-background:new 0 0 29 35;" xml:space="preserve">
<style type="text/css">
	.st0{fill:#232323;}
	.st1{fill:#FF5000;}
	.st2{fill:#FF4713;}
	.st3{fill:none;stroke:#FF4713;stroke-width:1.2759;stroke-linecap:round;stroke-miterlimit:10;}
	.st4{fill:none;stroke:#FF5000;stroke-width:1.3;stroke-linecap:round;stroke-miterlimit:10;}
	.st5{fill:none;stroke:#232323;stroke-linecap:round;stroke-miterlimit:10;}
	.st6{fill:none;stroke:#FF5000;stroke-linecap:round;stroke-miterlimit:10;}
	.st7{fill:none;stroke:#FF5000;stroke-width:1.3;stroke-linecap:round;}
	.st8{fill:#242424;}
	.st9{fill:none;stroke:#232323;stroke-width:1.2504;stroke-miterlimit:10;}
	.st10{fill:none;stroke:#FF5000;stroke-width:1.2504;stroke-linecap:round;stroke-linejoin:round;stroke-miterlimit:10;}
	.st11{fill:none;stroke:#232323;stroke-width:1.0223;stroke-linecap:round;stroke-miterlimit:10;}
	.st12{fill:none;stroke:#FF5000;stroke-width:1.0223;stroke-linecap:round;stroke-miterlimit:10;}
	
		.st13{fill-rule:evenodd;clip-rule:evenodd;fill:none;stroke:#FF5000;stroke-width:1.1057;stroke-linecap:round;stroke-linejoin:round;stroke-miterlimit:10;}
	
		.st14{fill-rule:evenodd;clip-rule:evenodd;fill:none;stroke:#232323;stroke-width:1.1057;stroke-linecap:round;stroke-linejoin:round;stroke-miterlimit:10;}
	.st15{fill:none;stroke:#232323;stroke-width:1.0361;stroke-miterlimit:10;}
	.st16{fill:none;stroke:#FF5000;stroke-width:1.0361;stroke-linecap:round;stroke-linejoin:round;stroke-miterlimit:10;}
	.st17{fill:none;stroke:#FF5000;stroke-miterlimit:10;}
	.st18{fill:none;stroke:#232323;stroke-width:1.1188;stroke-miterlimit:10;}
	.st19{fill:none;stroke:#FF5000;stroke-width:0.9287;stroke-miterlimit:10;}
	.st20{fill:none;stroke:#FF5000;stroke-width:1.0695;stroke-linejoin:round;stroke-miterlimit:10;}
	.st21{fill:none;stroke:#FF5000;stroke-width:1.0695;stroke-linecap:round;stroke-linejoin:round;stroke-miterlimit:10;}
	.st22{fill:none;stroke:#232323;stroke-width:1.1938;stroke-linecap:round;stroke-miterlimit:10;}
	.st23{fill:none;stroke:#FF5000;stroke-width:1.4922;stroke-linecap:round;stroke-miterlimit:10;}
	.st24{fill-rule:evenodd;clip-rule:evenodd;fill:none;stroke:#FF5000;stroke-width:0.9183;stroke-miterlimit:10;}
	.st25{fill-rule:evenodd;clip-rule:evenodd;fill:none;stroke:#232323;stroke-width:0.9183;stroke-miterlimit:10;}
	.st26{fill:none;stroke:#232323;stroke-width:0.9183;stroke-miterlimit:10;}
	.st27{fill-rule:evenodd;clip-rule:evenodd;fill:none;stroke:#F15A22;stroke-width:0.9183;stroke-miterlimit:10;}
	.st28{fill-rule:evenodd;clip-rule:evenodd;fill:#FF5000;}
	.st29{fill-rule:evenodd;clip-rule:evenodd;fill:#232323;}
</style>
<path class="st1" d="M10.74,13.06c0.81-0.58,1.35-1.53,1.35-2.6c0-1.74-1.42-3.17-3.17-3.17s-3.18,1.42-3.18,3.17
	c0,1.07,0.54,2.02,1.36,2.6c-2.03,0.72-3.49,2.59-3.49,4.81c0,0.34,0.27,0.62,0.61,0.63c0.34,0,0.62-0.27,0.63-0.61
	c0-0.01,0-0.01,0-0.02c0-2.15,1.79-3.89,4.07-3.89s4.06,1.74,4.06,3.89c0,0.34,0.27,0.62,0.61,0.63c0.34,0,0.62-0.27,0.63-0.61
	c0-0.01,0-0.01,0-0.02C14.23,15.65,12.77,13.78,10.74,13.06z M8.93,12.41c-1.07,0-1.94-0.86-1.94-1.94s0.87-1.93,1.94-1.93
	c1.07,0,1.93,0.85,1.93,1.93S10,12.41,8.93,12.41z"/>
<path class="st0" d="M22.59,20.43c1.54-0.65,2.63-2.18,2.63-3.95c0-2.35-1.92-4.27-4.27-4.27s-4.26,1.92-4.26,4.27
	c0,1.23,0.52,2.34,1.35,3.12H1.54c-0.02,0-0.04,0-0.06,0c-0.34,0.02-0.6,0.31-0.59,0.65c0.02,0.34,0.31,0.6,0.65,0.59h16.58
	c-2.49,1.06-4.24,3.44-4.24,6.24c0,0.34,0.27,0.62,0.61,0.63c0.34,0,0.62-0.27,0.63-0.61c0-0.01,0-0.01,0-0.02
	c0-3.09,2.6-5.59,5.88-5.59c3.28,0,5.87,2.5,5.87,5.59c0,0.34,0.27,0.62,0.61,0.63c0.34,0,0.62-0.27,0.63-0.61c0-0.01,0-0.01,0-0.02
	C28.11,23.82,25.75,21.12,22.59,20.43z M20.95,19.52c-1.68,0-3.02-1.36-3.02-3.04s1.35-3.03,3.02-3.03c1.68,0,3.03,1.35,3.03,3.03
	S22.63,19.52,20.95,19.52z"/>
</svg>
