<?xml version="1.0" encoding="utf-8"?>
<!-- Generator: Adobe Illustrator 24.1.0, SVG Export Plug-In . SVG Version: 6.00 Build 0)  -->
<svg version="1.1" id="Layer_1" xmlns="http://www.w3.org/2000/svg" xmlns:xlink="http://www.w3.org/1999/xlink" x="0px" y="0px"
	 viewBox="0 0 29 35" style="enable-background:new 0 0 29 35;" xml:space="preserve">
<style type="text/css">
	.st0{fill:#232323;}
	.st1{fill:#FF5000;}
	.st2{fill:#FF4713;}
	.st3{fill:none;stroke:#FF4713;stroke-width:1.2759;stroke-linecap:round;stroke-miterlimit:10;}
	.st4{fill:none;stroke:#FF5000;stroke-width:1.3;stroke-linecap:round;stroke-miterlimit:10;}
	.st5{fill:none;stroke:#232323;stroke-linecap:round;stroke-miterlimit:10;}
	.st6{fill:none;stroke:#FF5000;stroke-linecap:round;stroke-miterlimit:10;}
	.st7{fill:none;stroke:#FF5000;stroke-width:1.3;stroke-linecap:round;}
	.st8{fill:#242424;}
	.st9{fill:none;stroke:#232323;stroke-width:1.2504;stroke-miterlimit:10;}
	.st10{fill:none;stroke:#FF5000;stroke-width:1.2504;stroke-linecap:round;stroke-linejoin:round;stroke-miterlimit:10;}
	.st11{fill:none;stroke:#232323;stroke-width:1.0223;stroke-linecap:round;stroke-miterlimit:10;}
	.st12{fill:none;stroke:#FF5000;stroke-width:1.0223;stroke-linecap:round;stroke-miterlimit:10;}
	
		.st13{fill-rule:evenodd;clip-rule:evenodd;fill:none;stroke:#FF5000;stroke-width:1.1057;stroke-linecap:round;stroke-linejoin:round;stroke-miterlimit:10;}
	
		.st14{fill-rule:evenodd;clip-rule:evenodd;fill:none;stroke:#232323;stroke-width:1.1057;stroke-linecap:round;stroke-linejoin:round;stroke-miterlimit:10;}
	.st15{fill:none;stroke:#232323;stroke-width:1.0361;stroke-miterlimit:10;}
	.st16{fill:none;stroke:#FF5000;stroke-width:1.0361;stroke-linecap:round;stroke-linejoin:round;stroke-miterlimit:10;}
	.st17{fill:none;stroke:#FF5000;stroke-miterlimit:10;}
	.st18{fill:none;stroke:#232323;stroke-width:1.1188;stroke-miterlimit:10;}
	.st19{fill:none;stroke:#FF5000;stroke-width:0.9287;stroke-miterlimit:10;}
	.st20{fill:none;stroke:#FF5000;stroke-width:1.0695;stroke-linejoin:round;stroke-miterlimit:10;}
	.st21{fill:none;stroke:#FF5000;stroke-width:1.0695;stroke-linecap:round;stroke-linejoin:round;stroke-miterlimit:10;}
	.st22{fill:none;stroke:#232323;stroke-width:1.1938;stroke-linecap:round;stroke-miterlimit:10;}
	.st23{fill:none;stroke:#FF5000;stroke-width:1.4922;stroke-linecap:round;stroke-miterlimit:10;}
	.st24{fill-rule:evenodd;clip-rule:evenodd;fill:none;stroke:#FF5000;stroke-width:0.9183;stroke-miterlimit:10;}
	.st25{fill-rule:evenodd;clip-rule:evenodd;fill:none;stroke:#232323;stroke-width:0.9183;stroke-miterlimit:10;}
	.st26{fill:none;stroke:#232323;stroke-width:0.9183;stroke-miterlimit:10;}
	.st27{fill-rule:evenodd;clip-rule:evenodd;fill:none;stroke:#F15A22;stroke-width:0.9183;stroke-miterlimit:10;}
	.st28{fill-rule:evenodd;clip-rule:evenodd;fill:#FF5000;}
	.st29{fill-rule:evenodd;clip-rule:evenodd;fill:#232323;}
</style>
<g>
	<g>
		<path class="st15" d="M16.81,13.85h-4.01c-0.25,0-0.48,0.06-0.68,0.18l-1.52-3.01c-0.27-0.54-0.93-0.75-1.47-0.48l-0.07,0.03
			c-0.54,0.27-0.75,0.93-0.48,1.47l3.4,6.72c0.04,0.07,0.08,0.13,0.12,0.19l0.36,2.37l0.99,9.83c0,0.43,0.35,0.73,0.78,0.73h1.12
			c0.43,0,0.78-0.3,0.78-0.73l0.99-9.83h0.4c0.71,0,1.28-0.6,1.28-1.31l-0.73-4.94C18.1,14.36,17.52,13.85,16.81,13.85z"/>
		<circle class="st15" cx="14.81" cy="9.59" r="2.15"/>
		<path class="st15" d="M27.2,15.57c0-0.63-0.51-1.17-1.15-1.17h-3.59c-0.63,0-1.15,0.53-1.15,1.17l-0.65,5.78
			c0,0.63,0.51,1.15,1.15,1.15h0.36l0.88,7.43c0,0.39,0.31,0.66,0.7,0.66h1.01c0.39,0,0.7-0.28,0.7-0.66l0.88-7.43h0.36
			c0.63,0,1.15-0.51,1.15-1.15L27.2,15.57z"/>
		<circle class="st15" cx="24.26" cy="10.6" r="1.93"/>
		<path class="st15" d="M7.68,15.57c0-0.63-0.51-1.17-1.15-1.17H2.94c-0.63,0-1.15,0.53-1.15,1.17l-0.65,5.78
			c0,0.63,0.51,1.15,1.15,1.15h0.36l0.88,7.43c0,0.39,0.31,0.66,0.7,0.66h1.01c0.39,0,0.7-0.28,0.7-0.66l0.88-7.43h0.36
			c0.63,0,1.15-0.51,1.15-1.15L7.68,15.57z"/>
		<circle class="st15" cx="4.74" cy="10.6" r="1.93"/>
	</g>
	<g>
		<line class="st16" x1="14.81" y1="3.12" x2="14.81" y2="5.24"/>
		<line class="st16" x1="18.02" y1="4.18" x2="16.96" y2="6.02"/>
		<line class="st16" x1="11.6" y1="4.18" x2="12.66" y2="6.02"/>
	</g>
</g>
</svg>
