<svg width="24" height="24" viewBox="0 0 24 24" fill="none" xmlns="http://www.w3.org/2000/svg">
<path d="M20.5 10V11.5C20.5 11.8283 20.4353 12.1534 20.3097 12.4567C20.1841 12.76 19.9999 13.0356 19.7678 13.2678C19.5356 13.4999 19.26 13.6841 18.9567 13.8097C18.6534 13.9353 18.3283 14 18 14V14C17.337 14 16.7011 13.7366 16.2322 13.2678C15.7634 12.7989 15.5 12.163 15.5 11.5V10H20.5Z" stroke="#E5B349" stroke-width="0.8" stroke-linejoin="round"/>
<path d="M14 7L18 5.5L22 7L18 8.5L14 7Z" stroke="#E5B349" stroke-width="0.8" stroke-linejoin="round"/>
<path d="M15.5 10V7.5" stroke="#E5B349" stroke-width="0.8" stroke-linejoin="round"/>
<path d="M20.5 10V7.5" stroke="#E5B349" stroke-width="0.8" stroke-linejoin="round"/>
<path d="M22 7V10.5" stroke="#E5B349" stroke-width="0.8" stroke-linejoin="round"/>
<path d="M16.5 13.5V14.5C16.5 14.8978 16.658 15.2794 16.9393 15.5607C17.2206 15.842 17.6022 16 18 16C18.3978 16 18.7794 15.842 19.0607 15.5607C19.342 15.2794 19.5 14.8978 19.5 14.5V13.5" stroke="#E5B349" stroke-width="0.8" stroke-linejoin="round"/>
<path d="M19.5 14.5H20.5C21.2956 14.5 22.0587 14.8161 22.6213 15.3787C23.1839 15.9413 23.5 16.7044 23.5 17.5V23.5H12.5V17.5C12.5 16.7044 12.8161 15.9413 13.3787 15.3787C13.9413 14.8161 14.7044 14.5 15.5 14.5H16.5" stroke="#E5B349" stroke-width="0.8" stroke-linejoin="round"/>
<path d="M13 15.5L18 20.5L23 15.5" stroke="#E5B349" stroke-width="0.8" stroke-linejoin="round"/>
<path d="M15 23.5V21" stroke="#E5B349" stroke-width="0.8" stroke-linejoin="round"/>
<path d="M21 23.5V21" stroke="#E5B349" stroke-width="0.8" stroke-linejoin="round"/>
<path d="M17.5 4V1.5C17.5 1.23478 17.3946 0.98043 17.2071 0.792893C17.0196 0.605357 16.7652 0.5 16.5 0.5H3.5L0.5 3.5V22.5C0.5 22.7652 0.605357 23.0196 0.792893 23.2071C0.98043 23.3946 1.23478 23.5 1.5 23.5H11" stroke="#E5B349" stroke-width="0.8" stroke-linejoin="round"/>
<path d="M3.5 1V3.5H0.5" stroke="#E5B349" stroke-width="0.8" stroke-linejoin="round"/>
<path d="M9 11.5C10.6569 11.5 12 10.1569 12 8.5C12 6.84315 10.6569 5.5 9 5.5C7.34315 5.5 6 6.84315 6 8.5C6 10.1569 7.34315 11.5 9 11.5Z" stroke="#E5B349" stroke-width="0.8" stroke-linejoin="round"/>
<path d="M7 10.5V14.5L9 13L11 14.5V10.5" stroke="#E5B349" stroke-width="0.8" stroke-linejoin="round"/>
<path d="M2.5 19V20" stroke="#E5B349" stroke-width="0.8" stroke-linejoin="round"/>
<path d="M2.5 21V22" stroke="#E5B349" stroke-width="0.8" stroke-linejoin="round"/>
<path d="M4.5 21V22" stroke="#E5B349" stroke-width="0.8" stroke-linejoin="round"/>
</svg>
