<svg width="38" height="38" viewBox="0 0 38 38" fill="none" xmlns="http://www.w3.org/2000/svg">
<path d="M24.4044 23.7161L31.5104 16.6101C32.8135 15.307 34.9257 15.307 36.2303 16.6101C37.5461 17.9259 37.5318 20.0618 36.2003 21.3601L25.0283 32.2455C23.8455 33.3982 22.259 34.0426 20.6092 34.0426H8.93208L5.78125 37.1935" stroke="#E5B349" stroke-width="0.8" stroke-miterlimit="10"/>
<path d="M14.25 26.1263H21.375C23.1246 26.1263 24.5417 24.7092 24.5417 22.9596C24.5417 21.2101 23.1246 19.793 21.375 19.793H10.9361C9.25617 19.793 7.64592 20.4596 6.45842 21.6486L1.1875 26.918" stroke="#E5B349" stroke-width="0.8" stroke-miterlimit="10"/>
<path d="M13.082 12.4061H14.5171C14.5392 12.4736 14.5949 12.6285 14.6934 12.7969C14.6943 12.7985 14.6954 12.8004 14.6968 12.8028C14.7366 12.8718 14.9625 13.2636 15.4416 13.5329C15.7492 13.7058 16.2288 13.8629 16.7983 13.7539C17.3516 13.6481 17.7182 13.3425 17.9177 13.1181C18.0468 12.9729 18.1401 12.8243 18.2069 12.6932C18.2623 12.8024 18.3355 12.9226 18.4318 13.0425C18.5959 13.2468 18.914 13.5574 19.4248 13.7084C19.9744 13.8708 20.4812 13.7707 20.8442 13.5999C21.3951 13.3406 21.6549 12.9076 21.6976 12.8365C21.6991 12.8341 21.7003 12.8321 21.7012 12.8305C21.8155 12.6433 21.8767 12.4696 21.8974 12.4061H23.332V13.8346H13.082V12.4061Z" stroke="#E5B349" stroke-width="4"/>
</svg>
