<svg width="24" height="24" viewBox="0 0 24 24" fill="none" xmlns="http://www.w3.org/2000/svg">
<g clip-path="url(#clip0_57_11)">
<path d="M10.4922 12V9.824C10.4922 9.038 10.0322 8.325 9.31619 8.001L7.10119 7L5.48519 8.75L3.88419 7L1.66919 8.001C0.952187 8.325 0.492188 9.038 0.492188 9.824V12" stroke="#212529" stroke-miterlimit="10"/>
<path d="M5.49289 5.5C4.39989 5.5 3.49089 4.661 3.40289 3.571L3.34289 2.829C3.24289 1.574 4.23389 0.5 5.49289 0.5C6.75189 0.5 7.74389 1.574 7.64289 2.829L7.58289 3.571C7.49489 4.661 6.58589 5.5 5.49289 5.5Z" stroke="#212529" stroke-miterlimit="10"/>
<path d="M23.4912 24V21.824C23.4912 21.038 23.0312 20.325 22.3152 20.001L20.1002 19L18.4852 20.75L16.8832 19L14.6682 20.001C13.9522 20.325 13.4922 21.038 13.4922 21.824V24" stroke="#212529" stroke-miterlimit="10"/>
<path d="M18.493 17.5C17.4 17.5 16.491 16.661 16.403 15.571L16.343 14.829C16.242 13.574 17.233 12.5 18.493 12.5C19.752 12.5 20.744 13.574 20.643 14.829L20.583 15.571C20.495 16.661 19.586 17.5 18.493 17.5Z" stroke="#212529" stroke-miterlimit="10"/>
<path d="M21.5 7.5H15C13.895 7.5 13 6.605 13 5.5V4L11 1.5H23.5V5.5C23.5 6.605 22.605 7.5 21.5 7.5Z" stroke="#E5B349" stroke-miterlimit="10"/>
<path d="M2.5 21.5H9C10.105 21.5 11 20.605 11 19.5V18L13 15.5H0.5V19.5C0.5 20.605 1.395 21.5 2.5 21.5Z" stroke="#E5B349" stroke-miterlimit="10"/>
</g>
<defs>
<clipPath id="clip0_57_11">
<rect width="24" height="24" fill="white"/>
</clipPath>
</defs>
</svg>
