<svg width="512" height="512" viewBox="0 0 512 512" fill="none" xmlns="http://www.w3.org/2000/svg">
<g clip-path="url(#clip0_42_1704)">
<path d="M361.308 356.595H310.94H201.06H31.8604C26.1284 356.595 21.4644 351.931 21.4644 346.199V54.3421C21.4644 48.6101 26.1284 43.9461 31.8604 43.9461H48.6104C52.7594 43.9461 56.1214 40.5831 56.1214 36.4351C56.1214 32.2871 52.7594 28.9241 48.6104 28.9241H31.8614C17.8464 28.9241 6.44336 40.3261 6.44336 54.3421V346.199C6.44336 360.214 17.8454 371.617 31.8614 371.617H193.55V387.348C193.55 393.324 196.656 398.578 201.331 401.611L151.555 500.384C149.598 504.041 150.977 508.593 154.634 510.55C155.762 511.154 156.974 511.439 158.17 511.439C160.852 511.439 163.447 509.999 164.8 507.47L216.903 404.348H248.488V504.49C248.488 508.639 251.85 512.001 255.999 512.001C260.148 512.001 263.51 508.639 263.51 504.49V404.347H295.095L347.198 507.469C348.552 509.999 351.146 511.438 353.828 511.438C355.023 511.438 356.236 511.153 357.364 510.549C361.021 508.592 362.4 504.041 360.443 500.383L310.667 401.61C315.342 398.578 318.448 393.323 318.448 387.347V371.616H361.306C365.455 371.616 368.817 368.254 368.817 364.105C368.818 359.957 365.457 356.595 361.308 356.595ZM303.429 387.348C303.429 388.44 302.541 389.327 301.45 389.327H299.685C299.648 389.327 299.612 389.327 299.575 389.327H212.401C212.379 389.327 212.357 389.327 212.335 389.327H210.55C209.459 389.327 208.571 388.44 208.571 387.348V371.617H303.429V387.348Z" fill="white"/>
<path d="M480.138 28.925H331.564C328.092 12.426 313.427 0 295.91 0H216.088C198.571 0 183.906 12.426 180.434 28.925H84.0344C79.8854 28.925 76.5234 32.288 76.5234 36.436C76.5234 40.584 79.8854 43.947 84.0344 43.947H187.162H324.835H480.138C485.87 43.947 490.534 48.611 490.534 54.343V346.2C490.534 351.932 485.87 356.596 480.138 356.596H396.201C392.052 356.596 388.69 359.958 388.69 364.107C388.69 368.256 392.052 371.618 396.201 371.618H480.138C494.153 371.618 505.556 360.216 505.556 346.2V54.342C505.556 40.327 494.153 28.925 480.138 28.925ZM196.033 28.925C199.081 20.811 206.922 15.022 216.088 15.022H295.91C305.076 15.022 312.916 20.811 315.965 28.925H196.033Z" fill="white"/>
<path d="M150.526 184.049H109.976C102.634 184.049 96.6621 190.022 96.6621 197.362V221.01C96.6621 228.352 102.635 234.324 109.976 234.324H150.526C157.868 234.324 163.84 228.351 163.84 221.01V216.697H182.858V278.273C182.858 282.422 186.22 285.784 190.369 285.784H218.615V290.098C218.615 297.439 224.588 303.411 231.929 303.411H272.479C279.821 303.411 285.793 297.438 285.793 290.098V285.784H341.101V290.098C341.101 297.439 347.074 303.411 354.415 303.411H394.965C402.307 303.411 408.279 297.438 408.279 290.098V266.45C408.279 259.108 402.306 253.136 394.965 253.136H354.415C347.073 253.136 341.101 259.109 341.101 266.45V270.763H285.793V266.45C285.793 259.108 279.82 253.136 272.479 253.136H231.929C224.587 253.136 218.615 259.109 218.615 266.45V270.763H197.881V209.187C197.881 208.791 197.841 208.405 197.782 208.025V150.41H219.148V154.723C219.148 162.065 225.121 168.037 232.462 168.037H273.012C280.354 168.037 286.326 162.064 286.326 154.723V150.41H303.564V176.043C303.564 180.191 306.926 183.554 311.075 183.554H341.1V187.867C341.1 195.209 347.073 201.181 354.414 201.181H394.964C402.306 201.181 408.278 195.208 408.278 187.867V164.219C408.278 156.877 402.305 150.906 394.964 150.906H354.414C347.072 150.906 341.1 156.879 341.1 164.219V168.532H318.586V142.9V115.156H341.1V119.469C341.1 126.811 347.073 132.783 354.414 132.783H394.964C402.306 132.783 408.278 126.81 408.278 119.469V95.8211C408.278 88.4791 402.305 82.5081 394.964 82.5081H354.414C347.072 82.5081 341.1 88.4811 341.1 95.8211V100.134H311.075C306.926 100.134 303.564 103.497 303.564 107.645V135.389H286.326V131.076C286.326 123.734 280.353 117.763 273.012 117.763H232.462C225.12 117.763 219.148 123.736 219.148 131.076V135.389H190.271C186.122 135.389 182.76 138.752 182.76 142.9V201.676H163.84V197.363C163.84 190.022 157.868 184.049 150.526 184.049ZM356.122 268.157H393.257V288.389H356.122V268.157ZM233.636 268.157H270.771V288.389H233.636V268.157V268.157ZM356.122 165.927H393.257V186.16H356.122V165.927ZM356.122 97.5291H393.257V117.762H356.122V97.5291ZM234.169 132.783H271.304V153.016H234.169V132.783V132.783ZM148.818 219.303H111.683V199.07H148.818V219.303Z" fill="white"/>
<path d="M111.973 82.5081H56.093C51.944 82.5081 48.582 85.8711 48.582 90.0191C48.582 94.1671 51.944 97.5301 56.093 97.5301H111.974C116.123 97.5301 119.485 94.1671 119.485 90.0191C119.485 85.8711 116.122 82.5081 111.973 82.5081Z" fill="white"/>
<path d="M56.093 132.783H111.974C116.123 132.783 119.485 129.42 119.485 125.272C119.485 121.124 116.123 117.761 111.974 117.761H56.093C51.944 117.761 48.582 121.124 48.582 125.272C48.582 129.42 51.944 132.783 56.093 132.783Z" fill="white"/>
<path d="M56.093 321.373H111.974C116.123 321.373 119.485 318.011 119.485 313.862C119.485 309.713 116.123 306.351 111.974 306.351H56.093C51.944 306.351 48.582 309.713 48.582 313.862C48.582 318.011 51.944 321.373 56.093 321.373Z" fill="white"/>
</g>
<defs>
<clipPath id="clip0_42_1704">
<rect width="512" height="512" fill="white"/>
</clipPath>
</defs>
</svg>
