<svg width="512" height="512" viewBox="0 0 512 512" fill="none" xmlns="http://www.w3.org/2000/svg">
<path d="M490.764 41.3969H399.283C395.856 22.7759 379.513 8.6189 359.916 8.6189H311.866C292.269 8.6189 275.926 22.7759 272.499 41.3969H171.594C159.885 41.3969 150.359 50.9229 150.359 62.6319V140.887C150.359 145.029 153.717 148.387 157.859 148.387C162.001 148.387 165.359 145.029 165.359 140.887V62.6329C165.359 59.1949 168.156 56.3979 171.594 56.3979H490.764C494.202 56.3979 497 59.1949 497 62.6329V301.944C497 305.382 494.203 308.18 490.764 308.18H392.454H279.328H228.8V297.919L235.008 286.182H265.298H297.599H327.132H359.433H371.892C376.034 286.182 379.392 282.824 379.392 278.682C379.392 274.54 376.034 271.182 371.892 271.182H366.933V150.359C366.933 142.684 360.689 136.439 353.014 136.439H333.552C325.877 136.439 319.632 142.684 319.632 150.359V271.182H305.099V206.656C305.099 198.981 298.855 192.737 291.18 192.737H271.718C264.043 192.737 257.798 198.981 257.798 206.656V271.182H242.942L245.089 267.122C245.305 266.713 245.483 266.286 245.62 265.844C246.853 261.881 247.478 257.768 247.478 253.617V233.613C247.478 197.012 218.874 166.385 182.359 163.887L130.382 160.33C124.031 159.894 117.719 162.147 113.076 166.508C110.227 169.184 108.131 172.536 106.946 176.198C77.793 179.386 55.033 204.158 55.033 234.146V250.98C55.033 254.408 55.668 257.765 56.919 260.957C57.046 261.281 57.196 261.597 57.367 261.9L77.714 298.024V339.016C77.714 351.319 83.087 362.848 92.134 370.768L93.161 379.603C92.975 379.795 92.799 379.997 92.633 380.21L82.512 393.243L61.473 396.514C44.362 399.174 28.734 407.882 17.469 421.034C6.204 434.186 0 450.965 0 468.282V495.879C0 500.021 3.358 503.379 7.5 503.379H138.915H169.601H298.348C302.49 503.379 305.848 500.021 305.848 495.879V468.476C305.848 464.334 302.49 460.976 298.348 460.976C294.206 460.976 290.848 464.334 290.848 468.476V488.379H176.236L172.836 460.692C173.463 459.939 174.052 459.153 174.585 458.324L187.455 468.152C188.775 469.16 190.378 469.691 192.007 469.691C192.599 469.691 193.194 469.621 193.779 469.479C195.98 468.944 197.82 467.443 198.788 465.396L225.434 409.003L241.873 411.5C260.739 414.366 276.934 426.356 285.196 443.572C286.486 446.26 289.168 447.829 291.963 447.829C293.051 447.829 294.156 447.591 295.202 447.089C298.936 445.297 300.511 440.817 298.719 437.083C293.292 425.773 285.143 416.259 275.219 409.225L294.7 360.649H328.39V495.879C328.39 500.021 331.748 503.379 335.89 503.379C340.032 503.379 343.39 500.021 343.39 495.879V360.649H366.896L444.077 499.523C445.448 501.99 448.004 503.381 450.64 503.381C451.872 503.381 453.123 503.076 454.277 502.435C457.898 500.423 459.201 495.856 457.189 492.236L384.004 360.552C392.953 359.623 399.954 352.038 399.954 342.847V323.179H490.764C502.473 323.179 512 313.653 512 301.943V62.6329C512 50.9229 502.474 41.3969 490.764 41.3969ZM311.866 23.6189H359.916C371.111 23.6189 380.613 31.0029 383.808 41.1579H287.975C291.169 31.0039 300.671 23.6189 311.866 23.6189ZM334.631 151.439H351.932V271.182H334.631V151.439ZM272.797 207.736H290.098V271.182H272.797V207.736ZM149.121 452.805C148.685 452.327 148.187 451.908 147.637 451.554C146.871 450.758 146.248 449.825 145.81 448.788L153.953 442.57L162.533 449.122C162.078 450.065 161.465 450.916 160.731 451.648C160.287 451.949 159.875 452.291 159.508 452.676C158.008 453.731 156.194 454.358 154.257 454.358C152.349 454.358 150.584 453.786 149.121 452.805ZM103.125 360.4C96.624 355.293 92.715 347.438 92.715 339.016V295.946C92.715 295.94 92.715 295.935 92.715 295.929V288.75V278.681V265.755C105.593 264.587 116.463 256.373 121.444 245.013C127.503 248.737 134.626 250.889 142.245 250.889H196.678C206.12 250.889 213.801 258.57 213.801 268.012V271.476V288.862V296.107C213.801 296.122 213.801 296.137 213.801 296.152V339.137C213.801 348.964 208.477 358.056 199.905 362.865L172.208 378.402C167.257 381.179 161.639 382.648 155.961 382.648H151.109C145.491 382.648 139.925 381.209 135.012 378.485L106.733 362.813C105.86 362.329 105.03 361.79 104.226 361.222C103.884 360.914 103.516 360.64 103.125 360.4ZM99.497 395.828L140.908 433.659L118.72 450.602L95.358 401.158L99.497 395.828ZM153.954 425.261L108.771 383.983L108.412 380.892L127.741 391.604C134.874 395.557 142.955 397.646 151.11 397.646H155.962C164.204 397.646 172.36 395.515 179.547 391.482L201.029 379.431L200.852 382.415L153.954 425.261ZM70.034 250.98V234.146C70.034 210.273 89.456 190.851 113.328 190.851C115.325 190.851 117.239 190.055 118.646 188.639C120.053 187.223 120.839 185.305 120.828 183.308C120.815 181.062 121.709 178.978 123.346 177.441C124.983 175.903 127.12 175.149 129.358 175.295L181.335 178.852C210.013 180.814 232.478 204.868 232.478 233.613V253.617C232.478 256.037 232.144 258.437 231.483 260.762L228.728 265.97C227.671 249.205 213.703 235.888 196.677 235.888H142.244C128.543 235.888 117.397 224.742 117.397 211.04V207.365C117.397 203.223 114.039 199.865 109.897 199.865C105.755 199.865 102.397 203.223 102.397 207.365V211.04C102.397 219.288 104.916 226.958 109.225 233.322C108.106 243.196 99.711 250.897 89.543 250.897H85.215C81.073 250.897 77.715 254.255 77.715 258.397V267.458L70.725 255.047C70.266 253.739 70.034 252.373 70.034 250.98ZM15 468.282C15 439.679 35.514 415.729 63.777 411.336L82.221 408.469L109.119 465.396C110.087 467.443 111.927 468.944 114.128 469.479C114.714 469.622 115.309 469.691 115.9 469.691C117.529 469.691 119.132 469.16 120.452 468.152L133.719 458.021C134.309 458.97 134.964 459.872 135.675 460.724L132.279 488.379H15V468.282ZM147.393 488.379L149.779 468.946C151.23 469.213 152.726 469.358 154.258 469.358C155.789 469.358 157.285 469.213 158.737 468.946L161.123 488.379H147.393ZM189.188 450.602L167 433.659L208.411 395.827L212.551 401.158L189.188 450.602ZM244.126 396.67L225.907 393.902L215.956 381.089L216.692 368.694C224.329 360.908 228.799 350.336 228.799 339.136V323.179H271.827V342.847C271.827 349.008 274.975 354.446 279.745 357.643L262.032 401.811C256.375 399.367 250.369 397.619 244.126 396.67ZM384.955 342.847C384.955 344.392 383.698 345.649 382.154 345.649H371.262C371.244 345.649 371.227 345.649 371.21 345.649H289.63C288.086 345.649 286.829 344.392 286.829 342.847V323.179H384.956V342.847H384.955Z" fill="white"/>
<path d="M299.441 112.102C296.512 109.173 291.763 109.173 288.835 112.102L242.294 158.644C239.365 161.573 239.365 166.322 242.294 169.25C243.758 170.714 245.678 171.447 247.597 171.447C249.516 171.447 251.436 170.715 252.9 169.25L294.138 128.012L306.139 140.013C309.068 142.942 313.817 142.942 316.745 140.013L351.932 104.826V109.33C351.932 113.472 355.29 116.83 359.432 116.83C363.574 116.83 366.932 113.472 366.932 109.33V86.722C366.932 86.474 366.919 86.226 366.895 85.978C366.885 85.872 366.864 85.768 366.85 85.663C366.83 85.526 366.814 85.388 366.787 85.252C366.763 85.13 366.729 85.012 366.699 84.892C366.67 84.775 366.644 84.657 366.609 84.541C366.573 84.423 366.529 84.31 366.488 84.194C366.447 84.078 366.409 83.962 366.361 83.848C366.316 83.74 366.263 83.636 366.214 83.531C366.159 83.415 366.108 83.298 366.047 83.184C365.992 83.081 365.929 82.984 365.87 82.884C365.804 82.774 365.742 82.662 365.67 82.555C365.595 82.443 365.512 82.338 365.431 82.231C365.365 82.143 365.304 82.052 365.233 81.967C364.919 81.584 364.568 81.233 364.186 80.92C364.103 80.851 364.014 80.792 363.929 80.728C363.819 80.645 363.711 80.56 363.597 80.484C363.493 80.415 363.386 80.355 363.279 80.291C363.175 80.229 363.074 80.164 362.966 80.106C362.858 80.048 362.747 79.999 362.637 79.947C362.525 79.894 362.416 79.839 362.301 79.791C362.194 79.747 362.085 79.711 361.977 79.672C361.855 79.628 361.734 79.581 361.608 79.543C361.501 79.511 361.392 79.487 361.283 79.46C361.154 79.427 361.027 79.391 360.896 79.365C360.774 79.341 360.651 79.327 360.529 79.309C360.409 79.291 360.292 79.269 360.17 79.257C359.954 79.236 359.738 79.227 359.522 79.224C359.492 79.224 359.463 79.219 359.433 79.219H335.438C331.296 79.219 327.938 82.577 327.938 86.719C327.938 90.861 331.296 94.219 335.438 94.219H341.327L311.443 124.103L299.441 112.102Z" fill="white"/>
<path d="M124.3 304.969C128.679 304.969 132.229 301.419 132.229 297.04C132.229 292.661 128.679 289.111 124.3 289.111C119.921 289.111 116.371 292.661 116.371 297.04C116.371 301.419 119.921 304.969 124.3 304.969Z" fill="white"/>
<path d="M179.23 304.629C183.609 304.629 187.159 301.079 187.159 296.7C187.159 292.321 183.609 288.771 179.23 288.771C174.851 288.771 171.301 292.321 171.301 296.7C171.301 301.079 174.851 304.629 179.23 304.629Z" fill="white"/>
<path d="M153.792 350.487C146.414 350.487 139.412 347.284 134.582 341.7C131.872 338.567 132.215 333.831 135.348 331.121C138.482 328.412 143.219 328.755 145.927 331.887C147.906 334.174 150.772 335.486 153.792 335.486C156.651 335.486 159.316 334.348 161.295 332.283C164.162 329.293 168.909 329.192 171.899 332.057C174.889 334.923 174.99 339.671 172.125 342.661C167.29 347.708 160.779 350.487 153.792 350.487Z" fill="white"/>
<path d="M452.487 160.343C452.487 159.582 451.871 158.966 451.11 158.966H422.889C422.128 158.966 421.512 159.582 421.512 160.343C421.512 161.103 422.128 161.719 422.889 161.719H451.11C451.871 161.719 452.487 161.103 452.487 160.343Z" fill="white"/>
<path d="M430.217 167.333C429.456 167.333 428.84 167.949 428.84 168.71C428.84 169.47 429.456 170.087 430.217 170.087H443.783C444.544 170.087 445.16 169.47 445.16 168.71C445.16 167.949 444.544 167.333 443.783 167.333H430.217Z" fill="white"/>
<path d="M471.419 99.2504C472.18 99.2504 472.796 98.6341 472.796 97.8735V92.5012C472.796 90.0192 470.777 88 468.295 88H421.991H412.233H405.703C403.22 88 401.201 90.0192 401.201 92.5012V177.499C401.201 179.981 403.22 182 405.703 182H468.295C470.777 182 472.796 179.981 472.796 177.499V104.592C472.796 103.831 472.18 103.215 471.419 103.215C470.659 103.215 470.042 103.831 470.042 104.592V177.498C470.042 178.462 469.259 179.246 468.295 179.246H405.703C404.739 179.246 403.955 178.462 403.955 177.498V92.5012C403.955 91.5378 404.739 90.7539 405.703 90.7539H410.856V105.69C410.856 106.518 411.348 107.26 412.11 107.583C412.369 107.693 412.642 107.746 412.912 107.746C413.435 107.746 413.95 107.546 414.341 107.167L417.112 104.482L419.883 107.166C420.477 107.742 421.353 107.905 422.114 107.583C422.876 107.261 423.368 106.518 423.368 105.691V90.7539H468.295C469.258 90.7539 470.042 91.5378 470.042 92.5012V97.8737C470.042 98.6341 470.659 99.2504 471.419 99.2504ZM420.614 104.04L418.543 102.033C417.741 101.255 416.484 101.255 415.682 102.032L413.61 104.04V90.7539H420.614V104.04Z" fill="white"/>
<path d="M453.81 136.02C455.805 135.784 457.309 134.247 457.309 132.444V128.19C457.309 126.388 455.805 124.85 453.809 124.614L452.455 124.454C452.337 124.144 452.209 123.837 452.073 123.535L452.918 122.463C454.162 120.885 454.139 118.734 452.864 117.46L449.856 114.452C448.582 113.178 446.431 113.154 444.853 114.398L443.782 115.243C443.479 115.107 443.172 114.98 442.862 114.862L442.702 113.507C442.466 111.512 440.929 110.008 439.126 110.008H434.872C433.069 110.008 431.532 111.512 431.296 113.508L431.136 114.862C430.826 114.98 430.52 115.107 430.217 115.243L429.146 114.398C427.568 113.155 425.417 113.178 424.142 114.452L421.134 117.46C419.86 118.735 419.837 120.886 421.08 122.463L421.925 123.534C421.789 123.837 421.662 124.144 421.544 124.454L420.189 124.614C418.194 124.85 416.689 126.387 416.689 128.19V132.444C416.689 134.246 418.194 135.784 420.189 136.02L421.544 136.18C421.662 136.49 421.789 136.797 421.925 137.1L421.08 138.171C419.836 139.749 419.859 141.9 421.134 143.175L424.142 146.183C425.416 147.457 427.567 147.481 429.145 146.236L430.216 145.392C430.519 145.528 430.826 145.655 431.136 145.773L431.296 147.128C431.532 149.123 433.069 150.627 434.872 150.627H439.126C440.928 150.627 442.466 149.123 442.702 147.128L442.862 145.773C443.172 145.655 443.48 145.528 443.783 145.392L444.854 146.236C446.431 147.48 448.582 147.457 449.857 146.183L452.865 143.175C454.139 141.9 454.163 139.749 452.919 138.171L452.074 137.1C452.21 136.798 452.337 136.491 452.455 136.18L453.81 136.02ZM451.277 133.546C450.74 133.61 450.29 133.981 450.126 134.496C449.892 135.234 449.593 135.956 449.237 136.643C448.988 137.123 449.043 137.704 449.378 138.129L450.756 139.876C451.13 140.351 451.201 140.944 450.917 141.227L447.909 144.235C447.626 144.519 447.033 144.448 446.559 144.074L444.811 142.696C444.387 142.361 443.805 142.306 443.325 142.555C442.638 142.911 441.916 143.21 441.178 143.445C440.663 143.609 440.292 144.058 440.228 144.595L439.967 146.804C439.896 147.404 439.527 147.873 439.126 147.873H434.872C434.471 147.873 434.102 147.404 434.031 146.804L433.77 144.595C433.706 144.058 433.335 143.608 432.82 143.444C432.082 143.21 431.36 142.911 430.674 142.555C430.474 142.451 430.256 142.4 430.04 142.4C429.737 142.4 429.435 142.5 429.187 142.696L427.44 144.074C426.965 144.447 426.373 144.518 426.089 144.235L423.081 141.227C422.798 140.944 422.869 140.35 423.242 139.876L424.621 138.129C424.955 137.704 425.011 137.123 424.762 136.643C424.406 135.956 424.107 135.234 423.872 134.496C423.708 133.981 423.258 133.61 422.722 133.546L420.513 133.285C419.913 133.214 419.444 132.845 419.444 132.444V128.19C419.444 127.79 419.913 127.42 420.513 127.349L422.722 127.088C423.259 127.025 423.709 126.653 423.873 126.138C424.107 125.4 424.407 124.678 424.762 123.992C425.011 123.512 424.956 122.93 424.621 122.506L423.243 120.758C422.869 120.284 422.799 119.691 423.082 119.407L426.09 116.4C426.373 116.116 426.966 116.187 427.44 116.561L429.188 117.939C429.613 118.274 430.194 118.329 430.674 118.08C431.361 117.724 432.083 117.425 432.82 117.191C433.335 117.027 433.706 116.577 433.77 116.04L434.031 113.831C434.102 113.232 434.471 112.762 434.872 112.762H439.126C439.527 112.762 439.896 113.232 439.967 113.831L440.228 116.04C440.292 116.577 440.663 117.027 441.178 117.191C441.916 117.425 442.638 117.724 443.325 118.08C443.805 118.329 444.386 118.274 444.811 117.939L446.558 116.561C447.032 116.187 447.625 116.116 447.909 116.4L450.917 119.407C451.2 119.691 451.129 120.284 450.756 120.758L449.378 122.506C449.043 122.93 448.988 123.511 449.236 123.991C449.592 124.678 449.891 125.4 450.126 126.138C450.29 126.653 450.74 127.025 451.277 127.088L453.486 127.349C454.086 127.42 454.555 127.79 454.555 128.19V132.444C454.555 132.845 454.085 133.214 453.486 133.285L451.277 133.546Z" fill="white"/>
<path d="M436.999 122.161C432.561 122.161 428.949 125.773 428.949 130.211C428.949 133.759 431.324 136.935 434.724 137.935C434.854 137.973 434.984 137.991 435.113 137.991C435.708 137.991 436.257 137.602 436.433 137.003C436.648 136.273 436.231 135.508 435.501 135.293C433.265 134.635 431.703 132.545 431.703 130.211C431.703 127.291 434.079 124.915 436.999 124.915C439.919 124.915 442.295 127.291 442.295 130.211C442.295 132.077 441.341 133.771 439.744 134.742C439.094 135.137 438.887 135.984 439.282 136.634C439.677 137.284 440.524 137.49 441.174 137.096C443.6 135.621 445.049 133.048 445.049 130.211C445.049 125.773 441.438 122.161 436.999 122.161Z" fill="white"/>
</svg>
