<svg width="24" height="24" viewBox="0 0 24 24" fill="none" xmlns="http://www.w3.org/2000/svg">
<path d="M15.5 23.985V22.976C15.5 22.426 15.822 21.927 16.323 21.7L17.874 21H20.126L21.676 21.701C22.177 21.928 22.499 22.427 22.499 22.977V23.986" stroke="#E5B349" stroke-miterlimit="10"/>
<path d="M19.0008 19.5C18.2408 19.5 17.6078 18.913 17.5468 18.15L17.5048 17.631C17.4358 16.752 18.1248 16 19.0008 16C19.8768 16 20.5658 16.752 20.4958 17.63L20.4538 18.149C20.3938 18.912 19.7608 19.5 19.0008 19.5Z" stroke="#E5B349" stroke-miterlimit="10"/>
<path d="M8.5 8.486V7.477C8.5 6.927 8.822 6.428 9.323 6.201L10.873 5.5H13.125L14.675 6.201C15.178 6.428 15.5 6.927 15.5 7.477V8.486" stroke="#E5B349" stroke-miterlimit="10"/>
<path d="M11.9999 4C11.2399 4 10.6069 3.413 10.5459 2.65L10.5049 2.13C10.4349 1.252 11.1239 0.5 11.9999 0.5C12.8759 0.5 13.5649 1.252 13.4949 2.13L13.4539 2.65C13.3929 3.412 12.7599 4 11.9999 4Z" stroke="#E5B349" stroke-miterlimit="10"/>
<path d="M1.5 23.985V22.976C1.5 22.426 1.822 21.927 2.323 21.7L3.874 21H6.126L7.676 21.701C8.178 21.927 8.5 22.426 8.5 22.976V23.985" stroke="#E5B349" stroke-miterlimit="10"/>
<path d="M4.9999 19.5C4.2399 19.5 3.6069 18.913 3.5459 18.15L3.5049 17.63C3.4349 16.752 4.1239 16 4.9999 16C5.8759 16 6.5649 16.752 6.4949 17.63L6.4539 18.15C6.3929 18.912 5.7599 19.5 4.9999 19.5Z" stroke="#E5B349" stroke-miterlimit="10"/>
<path d="M15 3.51172C18.495 4.74772 20.999 8.08172 20.999 11.9997C20.999 13.0497 20.819 14.0587 20.488 14.9957" stroke="#E5B349" stroke-miterlimit="10"/>
<path d="M3.511 14.9957C3.18 14.0587 3 13.0497 3 11.9997C3 8.08172 5.504 4.74772 8.999 3.51172" stroke="#E5B349" stroke-miterlimit="10"/>
<path d="M16.002 20.0644C14.797 20.6634 13.438 21.0004 12.001 21.0004C10.531 21.0004 9.14297 20.6484 7.91797 20.0234" stroke="#E5B349" stroke-miterlimit="10"/>
<path d="M9 13L11 15L15 11" stroke="#E5B349" stroke-miterlimit="10"/>
</svg>
