<svg width="25" height="25" viewBox="0 0 25 25" fill="none" xmlns="http://www.w3.org/2000/svg">
<path d="M15.1029 20.832V21.8737C15.1029 22.5644 14.8285 23.2267 14.3401 23.7151C13.8517 24.2035 13.1894 24.4779 12.4987 24.4779V24.4779C11.808 24.4779 11.1456 24.2035 10.6573 23.7151C10.1689 23.2267 9.89453 22.5644 9.89453 21.8737V20.832H15.1029Z" stroke="#E5B349" stroke-width="0.9" stroke-linejoin="round"/>
<path d="M8.33203 17.707L12.4987 16.1445L16.6654 17.707L12.4987 19.2695L8.33203 17.707Z" stroke="#E5B349" stroke-width="0.9" stroke-linejoin="round"/>
<path d="M9.89453 20.8327V18.2285" stroke="#E5B349" stroke-width="0.9" stroke-linejoin="round"/>
<path d="M15.1016 20.8327V18.2285" stroke="#E5B349" stroke-width="0.9" stroke-linejoin="round"/>
<path d="M16.6641 17.707V21.3529" stroke="#E5B349" stroke-width="0.9" stroke-linejoin="round"/>
<path d="M6.76953 17.7057H5.20703V20.3099L2.60286 17.7057H1.5612C1.28493 17.7057 1.01998 17.596 0.824628 17.4006C0.629278 17.2053 0.519531 16.9403 0.519531 16.6641V5.20573C0.519531 4.92946 0.629278 4.66451 0.824628 4.46916C1.01998 4.27381 1.28493 4.16406 1.5612 4.16406H11.9779C12.2541 4.16406 12.5191 4.27381 12.7144 4.46916C12.9098 4.66451 13.0195 4.92946 13.0195 5.20573V14.5807" stroke="#E5B349" stroke-width="0.9" stroke-linejoin="round"/>
<path d="M14.5833 14.0612H19.7917V16.6654L22.3958 14.0612H23.4375C23.7138 14.0612 23.9787 13.9515 24.1741 13.7561C24.3694 13.5608 24.4792 13.2958 24.4792 13.0195V1.5612C24.4792 1.28493 24.3694 1.01998 24.1741 0.824628C23.9787 0.629278 23.7138 0.519531 23.4375 0.519531H11.9792C11.7029 0.519531 11.4379 0.629278 11.2426 0.824628C11.0472 1.01998 10.9375 1.28493 10.9375 1.5612V2.60286" stroke="#E5B349" stroke-width="0.9" stroke-linejoin="round"/>
<path d="M4.16406 14.0612V11.457H9.3724V14.0612" stroke="#E5B349" stroke-width="0.9" stroke-linejoin="round"/>
<path d="M2.60156 14.0605H10.9349" stroke="#E5B349" stroke-width="0.9" stroke-linejoin="round"/>
<path d="M6.76953 14.0612V11.457" stroke="#E5B349" stroke-width="0.9" stroke-linejoin="round"/>
<path d="M4.16406 11.457L6.76823 6.76953L9.3724 11.457" stroke="#E5B349" stroke-width="0.9" stroke-linejoin="round"/>
<path d="M5.20703 9.375H8.33203" stroke="#E5B349" stroke-width="0.9" stroke-linejoin="round"/>
<path d="M14.582 4.6875H20.832L22.0711 5.92656C22.1737 6.02915 22.2551 6.15095 22.3106 6.285C22.3661 6.41905 22.3946 6.56273 22.3945 6.70781V6.70781C22.3944 7.00075 22.278 7.28165 22.0708 7.48879C21.8637 7.69593 21.5828 7.81236 21.2898 7.8125H19.7904L17.707 10.4167H16.1445V7.8125H14.582" stroke="#E5B349" stroke-width="0.9" stroke-linejoin="round"/>
</svg>
