<svg width="40" height="40" viewBox="0 0 40 40" fill="none" xmlns="http://www.w3.org/2000/svg">
<path d="M24.2675 24.9971L30.4701 18.7945C31.6076 17.657 33.4512 17.657 34.59 18.7945C35.7385 19.943 35.7261 21.8074 34.5638 22.9406L24.812 32.4423C23.7796 33.4484 22.3948 34.0109 20.9547 34.0109H10.762L8.01172 36.7612" stroke="#E5B349" stroke-width="0.8" stroke-miterlimit="10"/>
<path d="M15.402 27.1005H21.6212C23.1484 27.1005 24.3853 25.8636 24.3853 24.3364C24.3853 22.8092 23.1484 21.5723 21.6212 21.5723H12.5093C11.043 21.5723 9.63741 22.1541 8.60087 23.192L4 27.7915" stroke="#E5B349" stroke-width="0.8" stroke-miterlimit="10"/>
<path d="M26.8763 8.43804L26.608 8.28583C26.6393 8.12187 26.6393 7.9536 26.608 7.78964L26.8763 7.63743C26.9291 7.60792 26.9755 7.56842 27.0127 7.52123C27.05 7.47403 27.0773 7.42006 27.0933 7.36243C27.1092 7.30479 27.1134 7.24463 27.1055 7.18541C27.0977 7.12619 27.078 7.06908 27.0476 7.01736C27.0172 6.96564 26.9767 6.92034 26.9284 6.88407C26.8802 6.84779 26.8251 6.82126 26.7663 6.80599C26.7075 6.79073 26.6463 6.78703 26.5861 6.79512C26.5258 6.80322 26.4678 6.82293 26.4154 6.85313L26.1464 7.00568C26.0176 6.89721 25.8696 6.81296 25.7097 6.75713V6.45283C25.7097 6.33273 25.6612 6.21755 25.5747 6.13263C25.4883 6.04771 25.3711 6 25.2488 6C25.1266 6 25.0094 6.04771 24.9229 6.13263C24.8365 6.21755 24.788 6.33273 24.788 6.45283V6.75713C24.6281 6.81296 24.4801 6.89721 24.3513 7.00568L24.0823 6.85313C23.9765 6.79403 23.8512 6.77844 23.7337 6.80977C23.6163 6.8411 23.5162 6.91681 23.4553 7.02036C23.3945 7.12392 23.3778 7.24692 23.4089 7.36253C23.44 7.47813 23.5164 7.57696 23.6214 7.63743L23.8897 7.78964C23.8583 7.9536 23.8583 8.12187 23.8897 8.28583L23.6214 8.43804C23.5686 8.46755 23.5222 8.50705 23.4849 8.55424C23.4477 8.60144 23.4203 8.65541 23.4044 8.71304C23.3885 8.77068 23.3843 8.83084 23.3921 8.89006C23.4 8.94928 23.4197 9.00639 23.45 9.05811C23.4804 9.10983 23.5209 9.15513 23.5692 9.1914C23.6175 9.22768 23.6726 9.25421 23.7314 9.26948C23.7901 9.28474 23.8514 9.28844 23.9116 9.28034C23.9718 9.27225 24.0298 9.25254 24.0823 9.22234L24.3513 9.06979C24.4801 9.17826 24.6281 9.26251 24.788 9.31834V9.62264C24.788 9.74274 24.8365 9.85792 24.9229 9.94284C25.0094 10.0278 25.1266 10.0755 25.2488 10.0755C25.3711 10.0755 25.4883 10.0278 25.5747 9.94284C25.6612 9.85792 25.7097 9.74274 25.7097 9.62264V9.31834C25.8696 9.26251 26.0176 9.17826 26.1464 9.06979L26.4154 9.22234C26.5212 9.28144 26.6465 9.29703 26.764 9.2657C26.8814 9.23437 26.9815 9.15866 27.0423 9.05511C27.1032 8.95155 27.1199 8.82855 27.0888 8.71294C27.0577 8.59734 26.9813 8.49851 26.8763 8.43804ZM24.788 8.03773C24.788 7.94817 24.815 7.86062 24.8656 7.78616C24.9163 7.71169 24.9882 7.65365 25.0725 7.61937C25.1567 7.5851 25.2493 7.57613 25.3388 7.59361C25.4282 7.61108 25.5103 7.65421 25.5747 7.71754C25.6392 7.78087 25.6831 7.86155 25.7009 7.94939C25.7187 8.03723 25.7095 8.12828 25.6746 8.21103C25.6398 8.29377 25.5807 8.36449 25.5049 8.41425C25.4291 8.46401 25.34 8.49056 25.2488 8.49056C25.1266 8.49042 25.0095 8.44266 24.9231 8.35777C24.8367 8.27288 24.7881 8.15779 24.788 8.03773ZM26.5376 11.0126C26.4162 11.0268 26.3056 11.0879 26.23 11.1823C26.1544 11.2767 26.1201 11.3967 26.1346 11.5159C26.1586 11.7141 26.1706 11.9136 26.1706 12.1132C26.1716 13.3326 25.7154 14.5095 24.8892 15.4194C24.3755 14.6875 23.6527 14.1213 22.812 13.7924C23.2635 13.4429 23.593 12.9639 23.7546 12.4219C23.9162 11.8799 23.9019 11.302 23.7137 10.7683C23.5255 10.2347 23.1727 9.77201 22.7044 9.44451C22.2362 9.11702 21.6757 8.94104 21.1009 8.94104C20.5261 8.94104 19.9655 9.11702 19.4973 9.44451C19.029 9.77201 18.6762 10.2347 18.488 10.7683C18.2998 11.302 18.2855 11.8799 18.4471 12.4219C18.6087 12.9639 18.9382 13.4429 19.3897 13.7924C18.549 14.1214 17.8262 14.6875 17.3125 15.4194C16.6629 14.7021 16.2384 13.8155 16.0899 12.8665C15.9415 11.9175 16.0756 10.9466 16.4759 10.0707C16.8763 9.19486 17.5259 8.45145 18.3465 7.93005C19.1671 7.40866 20.1236 7.13154 21.1009 7.13207C21.258 7.13207 21.4164 7.13921 21.5718 7.15324C21.6935 7.16426 21.8147 7.12731 21.9087 7.05053C22.0027 6.97375 22.0618 6.86342 22.073 6.74383C22.0842 6.62423 22.0466 6.50516 21.9685 6.41281C21.8903 6.32046 21.7781 6.26239 21.6563 6.25138C21.4717 6.23475 21.2863 6.22642 21.1009 6.22641C19.8933 6.22586 18.7137 6.58402 17.717 7.25389C16.7203 7.92375 15.9529 8.87403 15.5157 9.98002C15.0785 11.086 14.9918 12.296 15.2669 13.4513C15.5421 14.6066 16.1664 15.6531 17.0577 16.4536C17.0805 16.4788 17.1061 16.5014 17.1341 16.5209C18.2279 17.4738 19.6391 18 21.1009 18C22.5628 18 23.974 17.4738 25.0678 16.5208C25.0956 16.5013 25.1211 16.4789 25.1438 16.4538C25.758 15.9032 26.2485 15.2328 26.5841 14.4854C26.9196 13.738 27.0927 12.9301 27.0924 12.1132C27.0924 11.8777 27.0782 11.6424 27.0499 11.4086C27.0427 11.3495 27.0238 11.2925 26.9941 11.2406C26.9645 11.1887 26.9248 11.1431 26.8772 11.1064C26.8296 11.0696 26.7752 11.0424 26.7169 11.0263C26.6586 11.0102 26.5977 11.0056 26.5376 11.0126ZM19.2573 11.6604C19.2573 11.3021 19.3654 10.9519 19.568 10.6541C19.7706 10.3562 20.0585 10.124 20.3954 9.98693C20.7322 9.84984 21.1029 9.81397 21.4605 9.88386C21.8181 9.95375 22.1466 10.1263 22.4044 10.3796C22.6623 10.6329 22.8378 10.9556 22.909 11.307C22.9801 11.6584 22.9436 12.0226 22.8041 12.3535C22.6645 12.6845 22.4282 12.9674 22.1251 13.1664C21.8219 13.3655 21.4655 13.4717 21.1009 13.4717C20.6121 13.4712 20.1435 13.2801 19.7979 12.9406C19.4523 12.601 19.2579 12.1406 19.2573 11.6604ZM17.9947 16.0471C18.3283 15.5351 18.7877 15.1139 19.3305 14.8221C19.8733 14.5303 20.4821 14.3774 21.1009 14.3774C21.7196 14.3774 22.3284 14.5303 22.8712 14.8221C23.414 15.1139 23.8734 15.5351 24.2071 16.0471C23.319 16.7259 22.226 17.0944 21.1009 17.0944C19.9757 17.0944 18.8827 16.7259 17.9947 16.0471Z" fill="#E5B349"/>
</svg>
