<svg width="81" height="73" viewBox="0 0 81 73" fill="none" xmlns="http://www.w3.org/2000/svg">
<mask id="path-1-inside-1_42_5886" fill="white">
<path d="M43.9999 36.7868C46.9999 36.2668 46.9999 35.0068 46.9999 35.0068V34.8958C46.9867 33.9835 47.1763 33.0796 47.555 32.2495C47.9338 31.4194 48.4922 30.6838 49.1899 30.0958C51.27 28.4084 52.778 26.1198 53.508 23.5427C54.2379 20.9657 54.154 18.2261 53.2678 15.6986C52.3815 13.1711 50.7363 10.979 48.5569 9.42202C46.3775 7.86507 43.7704 7.01929 41.0921 7.00033C38.4137 6.98136 35.7949 7.79013 33.5937 9.31606C31.3925 10.842 29.7163 13.0106 28.7944 15.5253C27.8725 18.04 27.7498 20.7781 28.4431 23.3652C29.1365 25.9523 30.612 28.2621 32.6679 29.9788C33.3824 30.5527 33.9617 31.2769 34.3647 32.0999C34.7677 32.9229 34.9846 33.8245 34.9999 34.7408V35.0068C34.9999 35.0068 34.9999 36.2668 37.9999 36.7868"/>
</mask>
<path d="M46.9999 35.0068L48.9999 35.0068V35.0068H46.9999ZM46.9999 34.8958H48.9999V34.8813L48.9997 34.8668L46.9999 34.8958ZM49.1899 30.0958L47.9299 28.5426L47.9154 28.5544L47.9012 28.5664L49.1899 30.0958ZM32.6679 29.9788L31.3861 31.514L31.4006 31.5262L31.4154 31.538L32.6679 29.9788ZM34.9999 34.7408H36.9999V34.7241L36.9996 34.7074L34.9999 34.7408ZM44.3415 38.7574C46.0837 38.4554 47.2798 37.8855 48.0485 37.1066C48.4368 36.7132 48.6834 36.2972 48.828 35.9079C48.8989 35.7171 48.942 35.5412 48.9673 35.3879C48.9799 35.3115 48.9881 35.2409 48.9931 35.1772C48.9956 35.1453 48.9973 35.1151 48.9984 35.0867C48.9989 35.0725 48.9993 35.0587 48.9996 35.0454C48.9997 35.0387 48.9998 35.0322 48.9998 35.0257C48.9999 35.0225 48.9999 35.0193 48.9999 35.0162C48.9999 35.0146 48.9999 35.0123 48.9999 35.0115C48.9999 35.0091 48.9999 35.0068 46.9999 35.0068C44.9999 35.0068 44.9999 35.0045 44.9999 35.0022C44.9999 35.0014 44.9999 34.9991 44.9999 34.9975C45 34.9944 45 34.9914 45 34.9883C45.0001 34.9822 45.0002 34.9761 45.0003 34.9701C45.0005 34.958 45.0008 34.946 45.0013 34.9342C45.0022 34.9106 45.0035 34.8875 45.0053 34.865C45.0088 34.8199 45.014 34.777 45.0208 34.736C45.0344 34.6537 45.0541 34.5803 45.0781 34.5157C45.1289 34.3789 45.1881 34.3104 45.2014 34.297C45.22 34.2781 44.9161 34.5982 43.6583 34.8162L44.3415 38.7574ZM48.9999 35.0068V34.8958H44.9999V35.0068H48.9999ZM48.9997 34.8668C48.9908 34.2507 49.1188 33.6402 49.3746 33.0796L45.7355 31.4193C45.2338 32.5189 44.9826 33.7163 45.0001 34.9248L48.9997 34.8668ZM49.3746 33.0796C49.6304 32.519 50.0075 32.0223 50.4787 31.6252L47.9012 28.5664C46.9769 29.3452 46.2372 30.3197 45.7355 31.4193L49.3746 33.0796ZM50.4499 31.649C52.85 29.702 54.5901 27.0613 55.4323 24.0878L51.5837 22.9977C50.966 25.1783 49.69 27.1148 47.9299 28.5426L50.4499 31.649ZM55.4323 24.0878C56.2745 21.1143 56.1777 17.9532 55.1551 15.0369L51.3804 16.3604C52.1303 18.499 52.2013 20.8171 51.5837 22.9977L55.4323 24.0878ZM55.1551 15.0369C54.1326 12.1205 52.2341 9.59111 49.7195 7.79464L47.3943 11.0494C49.2384 12.3668 50.6305 14.2217 51.3804 16.3604L55.1551 15.0369ZM49.7195 7.79464C47.2048 5.99816 44.1966 5.02226 41.1062 5.00038L41.0779 9.00028C43.3442 9.01632 45.5502 9.73198 47.3943 11.0494L49.7195 7.79464ZM41.1062 5.00038C38.0158 4.97849 34.9941 5.91169 32.4543 7.67237L34.7331 10.9597C36.5957 9.66857 38.8116 8.98423 41.0779 9.00028L41.1062 5.00038ZM32.4543 7.67237C29.9144 9.43306 27.9804 11.9353 26.9166 14.8369L30.6722 16.2137C31.4523 14.0859 32.8706 12.2509 34.7331 10.9597L32.4543 7.67237ZM26.9166 14.8369C25.8528 17.7385 25.7113 20.8979 26.5113 23.883L30.375 22.8475C29.7883 20.6584 29.8921 18.3416 30.6722 16.2137L26.9166 14.8369ZM26.5113 23.883C27.3113 26.8681 29.0138 29.5332 31.3861 31.514L33.9498 28.4436C32.2101 26.991 30.9616 25.0366 30.375 22.8475L26.5113 23.883ZM31.4154 31.538C31.9009 31.928 32.2946 32.4202 32.5685 32.9795L36.1609 31.2203C35.6287 30.1336 34.8638 29.1774 33.9204 28.4196L31.4154 31.538ZM32.5685 32.9795C32.8424 33.5388 32.9898 34.1516 33.0002 34.7742L36.9996 34.7074C36.9794 33.4975 36.693 32.307 36.1609 31.2203L32.5685 32.9795ZM32.9999 34.7408V35.0068H36.9999V34.7408H32.9999ZM34.9999 35.0068C32.9999 35.0068 32.9999 35.0091 32.9999 35.0115C32.9999 35.0123 32.9999 35.0146 32.9999 35.0162C33 35.0193 33 35.0225 33 35.0257C33.0001 35.0322 33.0002 35.0387 33.0003 35.0454C33.0005 35.0587 33.0009 35.0725 33.0015 35.0867C33.0026 35.1151 33.0043 35.1453 33.0068 35.1772C33.0117 35.2409 33.0199 35.3115 33.0325 35.3879C33.0578 35.5412 33.101 35.7171 33.1719 35.9079C33.3164 36.2972 33.5631 36.7132 33.9514 37.1066C34.72 37.8855 35.9161 38.4554 37.6583 38.7574L38.3415 34.8162C37.0837 34.5982 36.7798 34.2781 36.7985 34.297C36.8118 34.3104 36.8709 34.3789 36.9217 34.5157C36.9457 34.5803 36.9654 34.6537 36.979 34.736C36.9858 34.777 36.991 34.8199 36.9946 34.865C36.9963 34.8875 36.9977 34.9106 36.9986 34.9342C36.999 34.946 36.9994 34.958 36.9996 34.9701C36.9997 34.9761 36.9998 34.9822 36.9998 34.9883C36.9999 34.9914 36.9999 34.9944 36.9999 34.9975C36.9999 34.9991 36.9999 35.0014 36.9999 35.0022C36.9999 35.0045 36.9999 35.0068 34.9999 35.0068Z" fill="white" mask="url(#path-1-inside-1_42_5886)"/>
<path d="M38 41.0068C37.2044 41.0068 36.4413 40.6908 35.8787 40.1282C35.3161 39.5655 35 38.8025 35 38.0068V35.0068" stroke="white" stroke-width="2" stroke-linejoin="round"/>
<path d="M47 35.0068V38.0068C47 38.8025 46.6839 39.5655 46.1213 40.1282C45.5587 40.6908 44.7956 41.0068 44 41.0068" stroke="white" stroke-width="2" stroke-linejoin="round"/>
<path d="M22 21.1338H26" stroke="white" stroke-width="2" stroke-linejoin="round"/>
<path d="M56 21.1338H60" stroke="white" stroke-width="2" stroke-linejoin="round"/>
<path d="M25.5645 7.69873L28.3925 10.5277" stroke="white" stroke-width="2" stroke-linejoin="round"/>
<path d="M52.6074 32.7407L55.4354 35.5687" stroke="white" stroke-width="2" stroke-linejoin="round"/>
<path d="M56.4354 7.69873L53.6074 10.5277" stroke="white" stroke-width="2" stroke-linejoin="round"/>
<path d="M29.3925 32.7407L26.5645 35.5687" stroke="white" stroke-width="2" stroke-linejoin="round"/>
<path d="M38 25.0068L41 17.0068L44 25.0068" stroke="white" stroke-width="2" stroke-linejoin="round"/>
<path d="M39 60.0068H43V62.0068C43 62.5373 42.7893 63.046 42.4142 63.421C42.0391 63.7961 41.5304 64.0068 41 64.0068C40.4696 64.0068 39.9609 63.7961 39.5858 63.421C39.2107 63.046 39 62.5373 39 62.0068V60.0068Z" stroke="white" stroke-width="2"/>
<path d="M44 59.0068H38V25.0068L41 28.0068L44 25.0068V59.0068Z" stroke="white" stroke-width="2" stroke-linejoin="round"/>
<path d="M43 55.0068H37" stroke="white" stroke-width="2" stroke-linejoin="round"/>
<path d="M41 28.0068V55.0068" stroke="white" stroke-width="2" stroke-linejoin="round"/>
<path d="M39 22.0068L41 24.0068L43 22.0068" stroke="white" stroke-width="2" stroke-linejoin="round"/>
<path d="M14 20.0068V15.0068H26" stroke="white" stroke-width="2" stroke-linejoin="round"/>
<path d="M14 24.0068V22.0068" stroke="white" stroke-width="2" stroke-linejoin="round"/>
<path d="M14 53.0068V26.0068" stroke="white" stroke-width="2" stroke-linejoin="round"/>
<path d="M35 57.0068H14V53.0068H35" stroke="white" stroke-width="2" stroke-linejoin="round"/>
<path d="M51 53.0068H68V57.0068H47" stroke="white" stroke-width="2" stroke-linejoin="round"/>
<path d="M47 53.0068H49" stroke="white" stroke-width="2" stroke-linejoin="round"/>
<path d="M35 61.0068H10V17.0068H12" stroke="white" stroke-width="2" stroke-linejoin="round"/>
<path d="M70 17.0068H72V61.0068H47" stroke="white" stroke-width="2" stroke-linejoin="round"/>
<path d="M68 53.0068V15.0068H56" stroke="white" stroke-width="2" stroke-linejoin="round"/>
<path d="M50 48.0068H65" stroke="white" stroke-width="2" stroke-linejoin="round"/>
<path d="M50 44.0068H65" stroke="white" stroke-width="2" stroke-linejoin="round"/>
<path d="M17 48.0068H32" stroke="white" stroke-width="2" stroke-linejoin="round"/>
<path d="M17 44.0068H32" stroke="white" stroke-width="2" stroke-linejoin="round"/>
<path d="M29 30.0068H18V40.0068H29V37.0068" stroke="white" stroke-width="2" stroke-linejoin="round"/>
<path d="M60 34.0068H63V39.0068H60V34.0068Z" stroke="white" stroke-width="2"/>
</svg>
